<?xml version="1.0" encoding="utf-8"?>
<!-- Generator: Adobe Illustrator 24.2.1, SVG Export Plug-In . SVG Version: 6.00 Build 0)  -->
<svg version="1.1" id="Layer_1" xmlns="http://www.w3.org/2000/svg" xmlns:xlink="http://www.w3.org/1999/xlink" x="0px" y="0px"
	 viewBox="0 0 841.9 595.3" style="enable-background:new 0 0 841.9 595.3;" xml:space="preserve">
<style type="text/css">
	.st0{fill:#6790D2;}
</style>
<g id="Group_66" transform="translate(1257.016 317.683)">
	<path id="Path_42" class="st0" d="M-182.9-353.1c-0.1-0.2-0.2-0.4-0.3-0.6c-1-1.6-2-3.2-3.1-4.8c-8.8-12.4-21.4-21.6-35.9-26.3
		c-0.4-0.1-0.9-0.3-1.3-0.4c-6.6-2-13.5-3-20.4-3c-2.1,0-4.1,0.6-5.9,1.7c-0.2-0.2-0.4-0.5-0.6-0.7c-0.2-0.2-0.4-0.4-0.6-0.6
		c-3.7-3.8-8.9-6-14.2-5.9c-11.1,0-20.1,9-20.1,20c0,1.7,0.2,3.4,0.6,5.1c-25.1,24.8-25.3,65.2-0.5,90.3
		c7.8,7.9,17.6,13.6,28.3,16.6v-6.7c-30.3-9.4-47.2-41.6-37.7-71.9c2.6-8.2,6.9-15.7,12.7-22c5.5,8.1,16.1,11,25,6.9
		c0.3-0.1,0.6-0.3,0.9-0.4c0.3-0.2,0.6-0.3,0.9-0.5v98.6c0,6.1,5,11.1,11.1,11.1c39,0.1,70.7-31.5,70.8-70.5
		C-173.1-329.9-176.5-342.2-182.9-353.1z M-276.2-359.1c-8.1-6.1-9.7-17.5-3.7-25.6c6-8.1,17.5-9.8,25.6-3.7c0,0,0,0,0,0
		c0.7,0.5,1.3,1,1.9,1.6c0.2,0.2,0.4,0.4,0.6,0.6l0.1,0.1c0.2,0.2,0.3,0.4,0.5,0.6c1.3,1.6,2.4,3.4,3.1,5.3c3,8,0.2,17-6.9,21.7
		c-0.3,0.2-0.6,0.4-0.9,0.5c-0.3,0.2-0.6,0.4-0.9,0.5C-263-354.2-270.6-354.8-276.2-359.1L-276.2-359.1z M-208-355.3
		c0,9.7-7.8,17.5-17.5,17.5c-9.7,0-17.5-7.8-17.5-17.5c0-9.7,7.8-17.5,17.5-17.5c0,0,0,0,0,0c0.7,0,1.3,0,2,0.1
		c7.2,0.8,13.2,6.1,15,13.1C-208.2-358.2-208-356.8-208-355.3L-208-355.3z M-235.6-300.4c-9.7,0-17.5-7.8-17.5-17.5
		c0-9.7,7.8-17.5,17.5-17.5l0,0c0.2,0,0.4,0,0.6,0c9.7,0.3,17.3,8.4,17,18C-218.3-307.9-226.1-300.3-235.6-300.4z M-209-274.8
		c-0.7,10-9.4,17.6-19.5,16.9c-2.3-0.2-4.5-0.8-6.6-1.8c-9.1-4.4-13-15.3-8.6-24.4s15.3-13,24.4-8.6c6.4,3,10.4,9.5,10.4,16.5
		C-209-275.7-209-275.2-209-274.8L-209-274.8z M-174-316.5c0,8.4-5.7,15.7-13.7,17.8c-1.5,0.4-3.1,0.6-4.6,0.6
		c-8.7,0-16.2-6.1-18-14.6c-2.6,2-5.5,3.5-8.6,4.6c5.4-9.1,2.4-20.9-6.7-26.3c-2.6-1.6-5.6-2.5-8.7-2.7l0.3-1
		c9.5,4.7,21.1,0.9,25.8-8.6c1.6-3.3,2.3-7,1.9-10.7c2.8,3.1,4.9,6.7,6.2,10.6c1.4,4.2,1.9,8.6,1.5,12.9c9.6-3.4,20.1,1.5,23.6,11.1
		C-174.4-320.7-174-318.7-174-316.5L-174-316.5z"/>
	<path id="Path_43" class="st0" d="M-192.4-330.7c-2.5,0-5,0.7-7.2,2c-0.1,0.5-0.3,1-0.4,1.5c-1.4,4.1-3.6,7.8-6.5,10.9
		c0.2,7.8,6.7,14,14.5,13.8c7.8-0.2,14-6.7,13.8-14.5C-178.4-324.6-184.7-330.7-192.4-330.7z M-183.9-309.7
		c-3.8,4.7-10.6,5.4-15.3,1.6c-4.7-3.8-5.4-10.6-1.6-15.3c3.8-4.7,10.6-5.4,15.3-1.6c2.6,2.1,4.1,5.2,4.1,8.5
		C-181.5-314.1-182.3-311.6-183.9-309.7L-183.9-309.7z"/>
	<path id="Path_44" class="st0" d="M-215.6-285.5c0.6-0.6,0.6-1.6,0-2.3c-0.6-0.6-1.6-0.6-2.3,0l-1.3,1.3c-1.3-1-2.7-1.7-4.2-2.2
		c-0.7-0.6-1.4-1-2.2-1.2v-1.1c0-0.9-0.7-1.6-1.6-1.6c-0.9,0-1.6,0.7-1.6,1.6v1.1c-0.8,0.2-1.6,0.6-2.2,1.2
		c-1.5,0.5-2.9,1.2-4.2,2.2l-1.3-1.3c-0.6-0.6-1.6-0.6-2.3,0c-0.6,0.6-0.6,1.6,0,2.3l1.3,1.3c-1.5,1.9-2.4,4.1-2.7,6.4h-1.9
		c-0.9,0-1.6,0.7-1.6,1.6c0,0.9,0.7,1.6,1.6,1.6c0,0,0,0,0,0h1.9c0.3,2.4,1.2,4.6,2.7,6.4l-1.3,1.3c-0.6,0.6-0.6,1.6,0,2.3
		c0.6,0.6,1.6,0.6,2.3,0c0,0,0,0,0,0l1.3-1.3c1.3,1,2.7,1.7,4.2,2.2c0.7,0.6,1.4,1,2.3,1.2v1.1c0,0.9,0.7,1.6,1.6,1.6
		c0.8,0,1.5-0.6,1.6-1.4c0-0.1,0-0.2,0.1-0.3v-1.1c0.8-0.2,1.6-0.6,2.2-1.2c1.5-0.5,2.9-1.2,4.2-2.2l1.3,1.3c0.6,0.6,1.6,0.6,2.3,0
		c0.6-0.6,0.6-1.6,0-2.3l-1.3-1.3c0.8-1,1.4-2.1,1.9-3.4c0.4-1,0.6-2,0.8-3.1h1.9c0.9,0,1.6-0.7,1.6-1.6c0-0.9-0.7-1.6-1.6-1.6h-1.9
		c-0.3-2.4-1.2-4.6-2.7-6.4L-215.6-285.5z M-223.1-278v10c0,2.3-1.9,4.2-4.2,4.2c0,0,0,0,0,0c-0.6,0-1.1-0.1-1.6-0.3
		c-1-0.4-1.8-1.3-2.3-2.3c-0.2-0.5-0.3-1-0.3-1.6v-16.1c0-1.7,1-3.2,2.6-3.9c0.5-0.2,1.1-0.3,1.6-0.3c2.3,0,4.2,1.9,4.2,4.2
		L-223.1-278L-223.1-278z"/>
	<path id="Path_45" class="st0" d="M-256.8-363.7c0.3-0.3,0.6-0.5,0.9-0.8l0.1-0.1l0.7,0.6l0.8,0.6c0.7,0.5,1.7,0.4,2.2-0.4
		c0.5-0.7,0.4-1.7-0.3-2.2l-1.5-1.1c1.2-2.1,1.8-4.4,1.7-6.8l1.9-0.3c0.9-0.1,1.5-0.9,1.4-1.8c-0.1-0.9-0.9-1.5-1.8-1.4l-1.9,0.3
		c-0.4-1.4-0.9-2.6-1.7-3.8c-0.1-0.2-0.2-0.3-0.3-0.5c0-0.2-0.1-0.5-0.2-0.7c-0.1-0.4-0.3-0.7-0.5-1c-0.1-0.2-0.3-0.4-0.4-0.6
		l0.7-0.9c0.2-0.2,0.3-0.5,0.3-0.8c0.1-0.9-0.5-1.7-1.4-1.8c-0.6-0.1-1.2,0.2-1.5,0.6l-0.7,0.9c-0.7-0.3-1.4-0.4-2.1-0.4
		c-0.1,0-0.3,0-0.4,0c-1.5-0.5-3.1-0.8-4.7-0.8l-0.3-1.9c-0.1-0.9-0.9-1.5-1.8-1.4c-0.9,0.1-1.5,0.9-1.4,1.8l0,0l0.3,1.9
		c-2.3,0.6-4.4,1.9-6,3.6l-1.5-1.1c-0.7-0.5-1.7-0.4-2.3,0.3c-0.5,0.7-0.4,1.7,0.3,2.3c0,0,0,0,0,0l1.5,1.1c-1.1,1.8-1.6,3.9-1.7,6
		c0,0.3,0,0.5,0,0.7l-1.2,0.2l-0.7,0.1c-0.8,0.1-1.4,0.8-1.3,1.6c0,0.1,0,0.1,0,0.2c0.1,0.9,0.9,1.5,1.8,1.4l1.9-0.3
		c0.3,1,0.7,2,1.2,3c0.3,0.4,0.5,0.9,0.8,1.3c0.2,0.8,0.6,1.6,1.1,2.3l-0.7,0.9c-0.5,0.7-0.4,1.7,0.3,2.2c0,0,0,0,0,0
		c0.7,0.5,1.7,0.4,2.3-0.3l0.7-0.9c0.7,0.3,1.4,0.4,2.1,0.4c0.1,0,0.3,0,0.4,0c1.5,0.5,3.1,0.8,4.7,0.8l0.3,1.9
		c0.1,0.9,1,1.5,1.8,1.4c0.9-0.1,1.5-0.9,1.4-1.8l-0.3-1.8C-259.9-361.6-258.3-362.5-256.8-363.7z M-263-369.7l-2.7,3.6l-1,1.3
		c-1,1.3-2.7,1.9-4.4,1.5c-0.5-0.1-1-0.4-1.5-0.7c-0.9-0.7-1.5-1.7-1.6-2.7c-0.2-1.1,0.1-2.2,0.8-3.1l0.1-0.1l0.8-1.1l2.7-3.6
		l0.2-0.2l1.9-2.6l0.2-0.2l2.7-3.6l0.8-1.1l0.2-0.2c0.8-1.1,2-1.7,3.4-1.7c0.3,0,0.7,0.1,1,0.1l0.2,0c0.5,0.1,0.9,0.4,1.3,0.7
		c0.4,0.3,0.8,0.7,1.1,1.2c0.3,0.5,0.5,1,0.5,1.5l0,0c0.1,0.9,0,1.7-0.5,2.5l0,0c-0.1,0.2-0.2,0.4-0.3,0.5l-1,1.3l-2.7,3.6l-0.2,0.2
		l-1.9,2.6L-263-369.7z"/>
	<path id="Path_46" class="st0" d="M-223.5-369.4c-0.7-0.1-1.3-0.1-2-0.2c-7.8,0-14.2,6.3-14.2,14.2c0,5.1,2.8,9.9,7.3,12.4
		c2.1,1.2,4.5,1.8,6.9,1.8c7.8,0,14.2-6.4,14.2-14.2C-211.4-362.4-216.6-368.4-223.5-369.4z M-225.5-344.4c-6,0-11-4.9-11-10.9
		c0-6,4.9-11,10.9-11c0.7,0,1.4,0.1,2,0.2c0.3,0.1,0.6,0.1,0.9,0.2c5.8,1.6,9.3,7.6,7.7,13.4C-216.3-347.7-220.6-344.4-225.5-344.4
		L-225.5-344.4z"/>
	<path id="Path_47" class="st0" d="M-220.4-319.2h-2.7c-0.3-2.4-1.2-4.7-2.7-6.6l1.9-1.9c0.5-0.5,0.5-1.3,0-1.9
		c-0.5-0.5-1.3-0.5-1.9,0c0,0,0,0,0,0l-1.9,1.9c-1.9-1.5-4.2-2.5-6.6-2.7v-2.7c0-0.6-0.5-1.2-1.1-1.3c-0.1,0-0.1,0-0.2,0
		c-0.7,0-1.3,0.6-1.3,1.3c0,0,0,0,0,0v2.7c-2.4,0.3-4.7,1.2-6.6,2.7l-1.9-1.9c-0.5-0.5-1.3-0.5-1.9,0c-0.5,0.5-0.5,1.3,0,1.9l0,0
		l1.9,1.9c-1.5,1.9-2.5,4.2-2.7,6.6h-2.7c-0.7,0-1.3,0.6-1.3,1.3s0.6,1.3,1.3,1.3h2.7c0.3,2.4,1.2,4.7,2.7,6.6l-1.9,1.9
		c-0.5,0.5-0.5,1.4,0,1.9c0.5,0.5,1.3,0.5,1.8,0l1.9-1.9c1.9,1.5,4.2,2.5,6.6,2.7v2.7c0,0.7,0.6,1.3,1.3,1.3c0.7,0,1.3-0.6,1.3-1.3
		l0,0v-2.7c2.4-0.3,4.7-1.2,6.6-2.7l1.6,1.6l0.3,0.3c0.5,0.5,1.4,0.5,1.9,0c0.2-0.2,0.3-0.4,0.3-0.6c0.1-0.4,0-0.9-0.3-1.2l-1.9-1.9
		c1.5-1.9,2.5-4.2,2.7-6.6h2.7c0.7,0,1.3-0.6,1.3-1.3S-219.7-319.2-220.4-319.2L-220.4-319.2z M-228.1-311c-0.1,0.1-0.2,0.1-0.3,0.2
		c-0.1,0.1-0.2,0.2-0.2,0.3c-1.8,1.6-4.1,2.6-6.5,2.7c-0.1,0-0.3-0.1-0.4-0.1c-0.1,0-0.3,0-0.4,0.1c-1.7-0.1-3.3-0.6-4.8-1.4
		c-0.6-0.4-1.2-0.8-1.7-1.3c-0.1-0.1-0.1-0.2-0.2-0.3c-0.1-0.1-0.2-0.2-0.3-0.2c-1.7-1.8-2.6-4.1-2.7-6.5c0-0.1,0.1-0.3,0.1-0.4
		c0-0.1,0-0.3-0.1-0.4c0.1-2.4,1.1-4.7,2.7-6.5c0.1-0.1,0.2-0.1,0.3-0.2c0.1-0.1,0.2-0.2,0.2-0.3c1.4-1.3,3.1-2.2,4.9-2.5
		c0.5-0.1,1-0.2,1.6-0.2c0.1,0,0.3,0.1,0.4,0.1c0.1,0,0.3,0,0.4-0.1c2.4,0.1,4.7,1,6.5,2.7c0.1,0.1,0.1,0.2,0.2,0.3
		c0.1,0.1,0.2,0.2,0.3,0.2c1.7,1.8,2.6,4.1,2.7,6.5c0,0.1-0.1,0.3-0.1,0.4c0,0.1,0,0.3,0.1,0.4C-225.5-315.1-226.5-312.7-228.1-311z
		"/>
	<path id="Path_48" class="st0" d="M-226.5-387c0.9,0.4,1.8,0.7,2.8,0.8l0.2,0c0.1,0,0.2,0,0.3,0h2.5c15.4,5.3,28.6,15.5,37.5,29.1
		v-30.1c2.2-1.2,3.6-3.4,3.7-5.8h2.9l3,32.6c-0.9,1.8-1.4,3.9-1.4,5.9c0,0.4,0,0.8,0.1,1.3h-6c3.3,5.7,5.7,11.9,7.3,18.3h23.2
		c1.6-6.4,4-12.5,7.3-18.3h-6.1c0-0.4,0.1-0.8,0.1-1.3c0-2.1-0.5-4.2-1.5-6.1l3-32.4h3.1c0.2,2.5,1.6,4.7,3.7,5.8v30.1
		c8.9-13.6,22.1-23.9,37.5-29.1h2.6c0.1,0,0.2,0,0.3,0l0.2,0c1-0.1,1.9-0.3,2.8-0.8c0.7-0.3,1.3-0.8,1.9-1.3
		c1.4-1.4,2.1-3.2,2.1-5.1v-26.2c0-4-3.3-7.3-7.3-7.3h-36.5c-1.2,0-2.4,0.3-3.4,0.9h-8.2c-1-0.6-2.2-0.9-3.4-0.9h-19.4
		c-1.2,0-2.4,0.3-3.4,0.9h-8.2c-1-0.6-2.2-0.9-3.4-0.9h-36.5c-4,0-7.3,3.3-7.3,7.3v26.2c0,1.9,0.8,3.8,2.1,5.2
		C-227.8-387.8-227.2-387.3-226.5-387z M-150.9-354.4c0,1.3-0.2,2.6-0.7,3.8c-1.2,3.4-4,5.9-7.4,6.9c-2,0.6-4.2,0.6-6.2,0
		c-3.6-1-6.4-3.7-7.5-7.3c-0.2-0.7-0.4-1.5-0.5-2.2c0-0.4-0.1-0.8-0.1-1.3c0-0.5,0-1,0.1-1.4c0.8-6.1,6.4-10.4,12.5-9.7
		c4.9,0.6,8.8,4.4,9.6,9.3C-150.9-355.6-150.9-355-150.9-354.4z M-228.8-415.6c1.1,2,3.3,3.2,5.6,3.2h42v18.9c0,3-2.5,5.5-5.5,5.6
		h-36.5c-0.1,0-0.2,0-0.3,0c-2.9-0.2-5.2-2.6-5.2-5.5V-415.6z M-179.4-404.3v-8h1.1l0.7,8L-179.4-404.3z M-146.7-419.7v0.9
		c0,3.1-2.5,5.6-5.6,5.6h-19.4c-3.1,0-5.6-2.5-5.6-5.6v-0.9c0-3.1,2.5-5.5,5.6-5.6h19.4C-149.2-425.2-146.7-422.7-146.7-419.7z
		 M-95.2-393.5c0,2.9-2.3,5.4-5.2,5.5c-0.1,0-0.2,0-0.3,0h-36.5c-3,0-5.5-2.5-5.6-5.6v-18.9h42c2.3,0,4.4-1.2,5.6-3.2L-95.2-393.5z
		 M-144.6-404.3h-2l0.7-8h1.3L-144.6-404.3z"/>
	<path id="Path_49" class="st0" d="M-39.3-368.7c2.8-10.7-3.6-21.7-14.4-24.5c-1.7-0.4-3.4-0.6-5.1-0.6c-5.3,0-10.5,2.1-14.2,5.9
		c-0.2,0.2-0.4,0.4-0.6,0.6c-0.2,0.2-0.4,0.5-0.6,0.7c-1.8-1.1-3.8-1.7-5.9-1.7c-6.9,0-13.8,1-20.4,3c-0.4,0.1-0.9,0.3-1.3,0.4
		c-14.5,4.7-27.1,14-35.9,26.4c-1.1,1.5-2.1,3.1-3.1,4.8c-0.1,0.2-0.2,0.4-0.3,0.6c-19.7,33.7-8.4,77,25.3,96.7
		c10.8,6.3,23.2,9.7,35.7,9.7c6.1,0,11.1-5,11.1-11.1v-98.6c0.3,0.2,0.6,0.3,0.9,0.5s0.6,0.3,0.9,0.4c2.6,1.2,5.5,1.9,8.5,1.9l0,0
		c6.6,0,12.8-3.3,16.5-8.8c21.6,23.2,20.2,59.6-3,81.2c-6.3,5.8-13.8,10.2-22,12.7v6.7c34-9.4,53.9-44.6,44.5-78.6
		C-25.7-351.1-31.4-360.9-39.3-368.7z M-58.7-355.4L-58.7-355.4c-2.9,0-5.8-0.7-8.5-2.1c-0.3-0.2-0.6-0.3-0.9-0.5
		c-0.3-0.2-0.6-0.3-0.9-0.5c-5.9-3.9-8.9-10.9-7.9-17.9c0.5-3.4,1.9-6.5,4.1-9.1c0.2-0.2,0.3-0.4,0.5-0.6l0.1-0.1
		c0.2-0.2,0.4-0.4,0.6-0.6c0.6-0.6,1.2-1.1,1.9-1.6c8.1-6,19.6-4.4,25.6,3.7c6,8.1,4.4,19.6-3.7,25.6
		C-50.9-356.7-54.8-355.4-58.7-355.4L-58.7-355.4z M-88.4-335.4c10.1-0.5,18.7,7.4,19.2,17.5c0.5,10.1-7.4,18.7-17.5,19.2
		c-10.1,0.5-18.7-7.4-19.2-17.5c-0.4-9.9,7.1-18.4,16.9-19.1C-88.8-335.4-88.6-335.4-88.4-335.4z M-115.4-359.6
		c1.8-7.1,7.7-12.3,15-13.1c0.7-0.1,1.3-0.1,2-0.1c9.7,0,17.5,7.8,17.5,17.5c0,6.6-3.7,12.6-9.5,15.6c-2.5,1.3-5.2,2-8,2
		c-9.7,0-17.5-7.9-17.5-17.5C-115.9-356.8-115.8-358.2-115.4-359.6z M-88.8-259.6c-2.5,1.2-5.1,1.8-7.9,1.8
		c-9.6,0-17.5-7.4-18.3-16.9c0-0.5-0.1-0.9-0.1-1.4c0-10.1,8.2-18.3,18.3-18.4c10.1,0,18.3,8.2,18.4,18.3
		C-78.3-269.2-82.4-262.7-88.8-259.6L-88.8-259.6z M-149.9-316.5c0-10.1,8.2-18.4,18.3-18.4c2.2,0,4.3,0.4,6.3,1.1
		c-0.4-4.4,0.1-8.8,1.5-12.9c1.3-3.9,3.4-7.5,6.2-10.6c-0.1,0.7-0.1,1.3-0.1,2c0,10.6,8.6,19.3,19.2,19.3c3,0,6-0.7,8.6-2l0.3,1
		c-10.6,0.6-18.7,9.7-18.1,20.3c0.2,3.1,1.1,6.1,2.7,8.7c-3.1-1.1-6-2.6-8.6-4.6c-1.8,8.5-9.3,14.6-18,14.6c-1.6,0-3.1-0.2-4.7-0.6
		C-144.3-300.9-149.9-308.2-149.9-316.5L-149.9-316.5z"/>
	<path id="Path_50" class="st0" d="M-117.4-316.2c-2.9-3.1-5.1-6.9-6.5-10.9c-0.2-0.5-0.3-1-0.4-1.5c-6.7-4-15.4-1.8-19.4,4.9
		c-4,6.7-1.8,15.4,4.9,19.4c6.7,4,15.4,1.8,19.4-4.9C-118.1-311.4-117.4-313.8-117.4-316.2z M-140.1-309.7c-2.5-3.1-3.1-7.3-1.6-11
		c2.3-5.6,8.7-8.3,14.3-6s8.3,8.7,6,14.3s-8.7,8.3-14.3,6C-137.4-307.1-138.9-308.2-140.1-309.7z"/>
	<path id="Path_51" class="st0" d="M-81.8-277.8h-1.9c-0.3-2.4-1.2-4.6-2.7-6.4l1.3-1.3c0.6-0.6,0.6-1.6,0-2.3
		c-0.6-0.6-1.6-0.6-2.3,0l0,0l-1.3,1.3c-1.3-1-2.7-1.7-4.2-2.2c-0.7-0.6-1.4-1-2.3-1.2v-1.1c0-0.9-0.7-1.6-1.6-1.6
		c-0.9,0-1.6,0.7-1.6,1.6v1.1c-0.8,0.2-1.6,0.7-2.3,1.2c-1.5,0.5-2.9,1.2-4.2,2.2l-1.3-1.3c-0.6-0.6-1.6-0.6-2.3,0s-0.6,1.6,0,2.3
		l1.3,1.3c-1.5,1.9-2.4,4.1-2.7,6.4h-1.9c-0.9,0-1.6,0.7-1.6,1.6c0,0.9,0.7,1.6,1.6,1.6c0,0,0,0,0,0h1.9c0.3,2.3,1.2,4.6,2.7,6.4
		l-1.3,1.3c-0.6,0.6-0.6,1.6,0,2.3c0.6,0.6,1.6,0.6,2.3,0c0,0,0,0,0,0l1.3-1.3c1.3,1,2.7,1.7,4.2,2.2c0.7,0.6,1.4,1,2.3,1.2v1.1
		c0,0.1,0,0.2,0,0.3c0.2,0.9,1,1.4,1.9,1.3c0.7-0.1,1.3-0.8,1.3-1.5v-1.1c0.8-0.2,1.6-0.6,2.3-1.2c1.5-0.5,2.9-1.2,4.2-2.2l1.3,1.3
		c0.6,0.6,1.6,0.6,2.2,0c0.4-0.4,0.6-0.9,0.5-1.4c0-0.3-0.2-0.6-0.4-0.9l-1.3-1.3c1.5-1.9,2.4-4.1,2.7-6.4h1.9
		c0.9,0,1.6-0.7,1.6-1.6C-80.2-277-80.9-277.7-81.8-277.8L-81.8-277.8z M-92.5-277.8v9.7c0,2.3-1.9,4.2-4.2,4.2c0,0,0,0,0,0
		c-0.6,0-1.1-0.1-1.6-0.3c-1.6-0.6-2.6-2.2-2.6-3.9v-16.1c0-1.7,1-3.2,2.6-3.9c0.5-0.2,1.1-0.3,1.6-0.3c2.3,0,4.2,1.9,4.2,4.2
		V-277.8L-92.5-277.8z"/>
	<path id="Path_52" class="st0" d="M-42.4-371.4c0-0.1,0-0.1,0-0.2c0-0.8-0.6-1.5-1.3-1.6l-0.7-0.1l-1.2-0.2c0-0.3,0-0.5,0-0.7
		c-0.1-2.1-0.7-4.2-1.7-6l1.5-1.1c0.7-0.5,0.9-1.5,0.4-2.2c-0.5-0.7-1.5-0.9-2.2-0.4c0,0,0,0,0,0l-1.5,1.1c-1.6-1.7-3.7-2.9-6-3.6
		l0.3-1.9c0.1-0.9-0.5-1.7-1.4-1.8c-0.9-0.1-1.7,0.5-1.8,1.4l-0.3,1.9c-1.6,0-3.2,0.2-4.7,0.8c-0.1,0-0.3,0-0.4,0
		c-0.7,0-1.4,0.1-2.1,0.4l-0.7-0.9c-0.5-0.7-1.5-0.9-2.2-0.3c-0.5,0.3-0.7,0.9-0.6,1.5c0,0.3,0.1,0.5,0.3,0.8l0.7,0.9
		c-0.2,0.2-0.3,0.4-0.4,0.6c-0.2,0.3-0.3,0.7-0.5,1c-0.1,0.2-0.1,0.5-0.2,0.7c-0.1,0.2-0.2,0.3-0.3,0.5c-0.8,1.2-1.4,2.5-1.7,3.8
		l-1.9-0.3c-0.9-0.1-1.7,0.5-1.8,1.4c-0.1,0.9,0.5,1.7,1.3,1.8l1.9,0.3c-0.1,2.4,0.5,4.7,1.7,6.8l-1.5,1.1c-0.7,0.5-0.9,1.5-0.4,2.2
		c0.5,0.7,1.5,0.9,2.2,0.4c0,0,0,0,0,0l0.8-0.6l0.7-0.6l0.1,0.1c0.3,0.3,0.6,0.6,0.9,0.8c1.4,1.2,3.1,2.1,5,2.6l-0.3,1.9
		c-0.1,0.9,0.5,1.7,1.4,1.8c0.9,0.1,1.7-0.5,1.8-1.4l0,0l0.3-1.9c1.6,0,3.2-0.2,4.7-0.8c0.1,0,0.3,0,0.4,0c0.7,0,1.4-0.1,2.1-0.4
		l0.7,0.9c0.5,0.7,1.6,0.8,2.3,0.3c0.7-0.5,0.8-1.5,0.3-2.2l-0.7-0.9c0.5-0.7,0.9-1.5,1.1-2.3c0.9-1.3,1.6-2.7,2-4.3l1.9,0.3
		C-43.3-369.9-42.5-370.5-42.4-371.4z M-50.7-369.9l0.1,0.1c0.7,0.9,1,2,0.8,3.1c-0.1,0.5-0.3,1.1-0.5,1.5c-0.3,0.5-0.7,0.9-1.1,1.2
		c-0.7,0.5-1.6,0.8-2.5,0.8c-1.3,0-2.6-0.6-3.4-1.7l-1-1.3l-2.7-3.7l-0.2-0.2l-1.9-2.6l-0.2-0.2l-2.7-3.6l-1-1.3
		c-0.1-0.2-0.2-0.3-0.3-0.5l0,0c-0.4-0.8-0.6-1.6-0.4-2.5v0c0.2-1.1,0.7-2.1,1.6-2.7c0.4-0.3,0.9-0.5,1.3-0.7l0.2,0
		c0.3-0.1,0.7-0.1,1-0.1c1.3,0,2.6,0.6,3.4,1.7l0.2,0.2l0.8,1.1l2.7,3.6l0.2,0.2l1.9,2.6l0.2,0.2l2.7,3.6L-50.7-369.9z"/>
	<path id="Path_53" class="st0" d="M-98.4-341.2c2.4,0,4.8-0.6,6.9-1.8c6.8-3.8,9.3-12.4,5.5-19.3c-2.5-4.5-7.2-7.3-12.4-7.3
		c-0.7,0-1.3,0.1-2,0.2c-7.7,1.1-13.1,8.3-12,16C-111.4-346.3-105.5-341.2-98.4-341.2z M-100.4-366.1c0.7-0.1,1.3-0.2,2-0.2
		c6,0,10.9,4.9,10.9,10.9c0,3.8-1.9,7.2-5.1,9.3c-5.1,3.2-11.9,1.7-15.1-3.4c-1.1-1.8-1.7-3.8-1.7-5.9c0-4.9,3.3-9.2,8-10.5
		C-101-366-100.7-366-100.4-366.1z"/>
	<path id="Path_54" class="st0" d="M-103.6-319.2c-0.7,0-1.3,0.6-1.3,1.3s0.6,1.3,1.3,1.3h2.7c0.3,2.4,1.2,4.7,2.7,6.6l-1.9,1.9
		c-0.5,0.5-0.5,1.3,0,1.9c0.5,0.5,1.4,0.5,1.9,0l0.3-0.3l1.6-1.6c1.9,1.5,4.2,2.5,6.6,2.7v2.7c0,0.7,0.6,1.3,1.3,1.3
		c0.7,0,1.3-0.6,1.3-1.3v-2.7c2.4-0.3,4.7-1.2,6.6-2.7l1.9,1.9c0.5,0.5,1.3,0.5,1.9,0c0.5-0.5,0.5-1.3,0-1.9l0,0l-1.9-1.9
		c1.5-1.9,2.5-4.2,2.7-6.6h2.7c0.7,0,1.3-0.6,1.3-1.3c0-0.7-0.6-1.3-1.3-1.3h-2.7c-0.3-2.4-1.2-4.7-2.7-6.6l1.9-1.9
		c0.5-0.5,0.5-1.4,0-1.9c-0.5-0.5-1.4-0.5-1.9,0l-1.9,1.9c-1.9-1.5-4.2-2.5-6.6-2.7v-2.7c0-0.7-0.6-1.3-1.3-1.3c0,0,0,0,0,0
		c-0.1,0-0.1,0-0.2,0c-0.6,0.1-1.1,0.6-1.1,1.3v2.7c-2.4,0.3-4.7,1.2-6.6,2.7l-1.9-1.9c-0.5-0.5-1.3-0.5-1.9,0
		c-0.5,0.5-0.5,1.3,0,1.9l0,0l1.9,1.9c-1.5,1.9-2.5,4.2-2.7,6.6H-103.6z M-95.8-324.8c0.1,0,0.2-0.1,0.3-0.2
		c0.1-0.1,0.2-0.2,0.2-0.3c1.8-1.6,4.1-2.6,6.5-2.7c0.2,0.1,0.5,0.1,0.8,0c0.5,0,1,0.1,1.6,0.2c1.9,0.4,3.6,1.2,4.9,2.5
		c0.1,0.2,0.3,0.4,0.5,0.5c1.7,1.8,2.6,4.1,2.7,6.5c0,0.1-0.1,0.3-0.1,0.4c0,0.1,0,0.3,0.1,0.4c-0.1,2.4-1,4.7-2.7,6.5
		c-0.1,0.1-0.2,0.1-0.3,0.2c-0.1,0.1-0.2,0.2-0.2,0.3c-0.5,0.5-1.1,0.9-1.7,1.3c-1.5,0.9-3.1,1.4-4.8,1.4c-0.1,0-0.3-0.1-0.4-0.1
		c-0.1,0-0.3,0-0.4,0.1c-2.4-0.1-4.7-1.1-6.5-2.7c-0.1-0.1-0.1-0.2-0.2-0.3c-0.1-0.1-0.2-0.2-0.3-0.2c-1.7-1.8-2.6-4.1-2.7-6.5
		c0-0.1,0.1-0.3,0.1-0.4c0-0.1,0-0.3-0.1-0.4C-98.4-320.7-97.5-323-95.8-324.8L-95.8-324.8z"/>
	<path id="Path_55" class="st0" d="M-209.5-392.9h11.3c3.1,0,5.7-2.6,5.7-5.7c0,0,0,0,0,0c0-0.4-0.1-0.9-0.2-1.3
		c-0.6-2.6-2.9-4.4-5.5-4.4h-11.4c-3.2,0-5.7,2.6-5.6,5.8C-215-395.5-212.5-393-209.5-392.9L-209.5-392.9z"/>
	<path id="Path_56" class="st0" d="M-114.7-404.3H-126c-2.7,0-5,1.8-5.6,4.4c-0.1,0.4-0.1,0.9-0.2,1.3c0,3.2,2.6,5.7,5.7,5.7
		c0,0,0,0,0,0h11.3c3.2,0,5.7-2.6,5.6-5.8C-109.1-401.8-111.6-404.3-114.7-404.3L-114.7-404.3z"/>
</g>
</svg>
