<?xml version="1.0" encoding="utf-8"?>
<!-- Generator: Adobe Illustrator 24.2.1, SVG Export Plug-In . SVG Version: 6.00 Build 0)  -->
<svg version="1.1" id="Layer_1" xmlns="http://www.w3.org/2000/svg" xmlns:xlink="http://www.w3.org/1999/xlink" x="0px" y="0px"
	 viewBox="0 0 841.9 595.3" style="enable-background:new 0 0 841.9 595.3;" xml:space="preserve">
<style type="text/css">
	.st0{fill:#6790D2;}
</style>
<g id="Group_68" transform="translate(74.284 111.534)">
	<path id="Path_61" class="st0" d="M566,239h-16.2c-1.7-6.5-5.2-12.5-10-17.2l6.4-10.3c1.2-1.9,0.6-4.3-1.3-5.5l-6.5-4.1
		c-1.9-1.2-4.4-0.6-5.5,1.3l-6.4,10.3c-2.5-0.9-5.1-1.5-7.7-1.8l-6.3-18.6h48.9c3,0,5.4-2.4,5.4-5.4v-3.5c0-3-2.4-5.4-5.4-5.4h-89.7
		c-1.4-2.2-3.5-3.8-5.9-4.8v-2.2c0-2.7-2.3-4.8-4.9-4.8c-2.6,0-4.8,2.2-4.8,4.8v2.2c-2.4,1-4.4,2.6-5.9,4.8h-75.4
		c-3,0-5.4,2.4-5.4,5.4v3.5c0,3,2.4,5.4,5.4,5.4h39.5l-6.3,18.6c-0.3,0-0.6,0.1-0.9,0.1l-5.1-12.6c-1.1-2.7-4.3-4.1-7-3L388,199
		c-2.8,1.1-4.1,4.3-3,7l3.3,8.2l-5-5c-1.6-1.6-4.1-1.6-5.7,0c0,0,0,0,0,0l-5.4,5.4c-1.6,1.6-1.6,4.1,0,5.7c0,0,0,0,0,0l9.1,9.1
		c-1.8,3-3.2,6.3-4.1,9.6h-16.2c-2.2,0-4,1.8-4,4v15.6c0,2.2,1.8,4,4,4h17c0.3,0,0.6,0,0.8-0.1c7.8,18.8,29.5,27.7,48.3,19.9
		c13.5-5.6,22.4-18.7,22.7-33.3h27.6c0.4,20.4,17.3,36.6,37.7,36.1c14.6-0.3,27.7-9.2,33.3-22.7c0.3,0.1,0.6,0.1,0.8,0.1h17
		c2.2,0,4-1.8,4-4l0,0V243C570.1,240.8,568.3,239,566,239z M534.8,248.5c0,11.4-9.3,20.7-20.7,20.7c-11.4,0-20.7-9.3-20.7-20.7
		c0-11.4,9.3-20.7,20.7-20.7C525.6,227.8,534.8,237.1,534.8,248.5L534.8,248.5z M473.1,181.6h79.8v8.7h-79.8
		C474.2,187.5,474.2,184.4,473.1,181.6z M383.4,190.3v-8.7h65.5c-1.1,2.8-1.1,5.9,0,8.7H383.4z M412.8,279.2
		c-17,0-30.7-13.7-30.7-30.7c0-5.1,1.3-10.1,3.7-14.6l1,1l1,1c-6.9,13.8-1.3,30.6,12.5,37.5c13.8,6.9,30.6,1.3,37.5-12.5
		c6.9-13.8,1.3-30.6-12.5-37.5c-0.9-0.4-1.8-0.8-2.7-1.2l-2.1-0.7c-2.5-0.7-5.1-1.1-7.8-1.1c-0.7,0-1.3,0.1-2,0.1
		c-0.5,0-1,0.1-1.5,0.1s-0.9,0.1-1.4,0.2c-3.3,0.6-6.5,1.8-9.4,3.5l-1-1l-1-1l-3.2-3.2l-0.7-1.8l-5-12.4c-0.5-1.3,0.1-2.9,1.5-3.4
		l7.1-2.9c1.3-0.5,2.9,0.1,3.4,1.5l4.9,12.1l2.4,6c0.5-0.1,0.9-0.1,1.4-0.2c0.4-0.1,0.8-0.1,1.3-0.2c0.1,0,0.1,0,0.2,0
		c1-0.1,2.1-0.2,3.1-0.2c17,0,30.7,13.8,30.7,30.7S429.7,279.2,412.8,279.2L412.8,279.2L412.8,279.2z M392.1,248.5
		c0-11.4,9.3-20.7,20.7-20.7s20.7,9.3,20.7,20.7c0,11.4-9.3,20.7-20.7,20.7C401.4,269.2,392.1,259.9,392.1,248.5L392.1,248.5z
		 M456.1,236.2h-8.4l-0.1,0c-2-5.7-5.4-10.9-9.9-15l5-28.1h7.5c1.4,2.2,3.5,3.8,5.9,4.8L456.1,236.2z M456.1,194.8
		c-0.8-0.4-1.6-1-2.3-1.7c-0.4-0.4-0.8-0.9-1.2-1.4c-0.3-0.4-0.6-0.9-0.8-1.4c-1.5-3.3-1.2-7.1,0.8-10.1c0.3-0.5,0.7-1,1.2-1.4
		c0.7-0.7,1.5-1.2,2.3-1.7c3-1.7,6.7-1.7,9.7,0c0.8,0.4,1.6,1,2.3,1.7c0.4,0.4,0.8,0.9,1.2,1.4c0.3,0.4,0.6,0.9,0.8,1.4
		c1.4,2.7,1.4,6,0,8.7c-0.2,0.5-0.5,1-0.8,1.4c-0.3,0.5-0.7,1-1.2,1.4c-0.7,0.7-1.5,1.2-2.3,1.7
		C462.9,196.5,459.2,196.5,456.1,194.8L456.1,194.8z M479.2,236.2h-13.3v-38.3c2.4-1,4.4-2.7,5.9-4.8h12.4l5,28.1
		C484.7,225.3,481.3,230.4,479.2,236.2L479.2,236.2z M514.1,279.2c-17,0-30.7-13.8-30.7-30.7s13.8-30.7,30.7-30.7
		c1.1,0,2.2,0.1,3.3,0.2c1.9,0.2,3.8,0.6,5.6,1.1l-0.8,1.2l-0.8,1.2c-4.9-1.4-10.1-1.3-15.1,0.1l-2.1,0.7
		c-14.5,5.4-21.8,21.5-16.4,36c5.4,14.5,21.5,21.8,36,16.4c14.5-5.4,21.8-21.5,16.4-36c-1.2-3.3-3.1-6.4-5.5-9l0.8-1.2l0.8-1.2
		c11.7,12.2,11.3,31.7-1,43.4C529.7,276.2,522.1,279.2,514.1,279.2L514.1,279.2z"/>
</g>
</svg>
