<?xml version="1.0" encoding="utf-8"?>
<!-- Generator: Adobe Illustrator 24.2.1, SVG Export Plug-In . SVG Version: 6.00 Build 0)  -->
<svg version="1.1" id="Layer_1" xmlns="http://www.w3.org/2000/svg" xmlns:xlink="http://www.w3.org/1999/xlink" x="0px" y="0px"
	 viewBox="0 0 841.9 595.3" style="enable-background:new 0 0 841.9 595.3;" xml:space="preserve">
<style type="text/css">
	.st0{fill:#6790D2;}
</style>
<g id="Group_67" transform="translate(95.094 290.549)">
	<path id="Path_57" class="st0" d="M366.1-34.5c-12.6,0-24.2,6.8-30.3,17.7h-17.3C309-33.5,287.8-39.4,271.1-30
		s-22.7,30.7-13.2,47.4c0.5,1,1.1,1.9,1.8,2.8L239,40.8c-0.4,0.4-0.4,1.1,0,1.5c0,0,0,0,0,0c4.9,4.9,11.5,7.6,18.4,7.5
		c7.9-0.1,15.4-3.3,21-8.9c1.8-1.8,3.4-3.9,4.7-6.2c0.5,0.1,1,0.2,1.5,0.2c3.4,11.3,14.6,19.7,27.8,19.7c15.9,0,28.9-12.1,28.9-26.9
		c0-0.6-0.5-1-1-1c0,0,0,0,0,0h-29.5c3-2.6,5.6-5.8,7.6-9.3h17.3c9.4,16.7,30.7,22.7,47.4,13.2c16.7-9.4,22.7-30.7,13.2-47.4
		C390.2-27.7,378.6-34.5,366.1-34.5L366.1-34.5z M312.5,52.5c-12,0-22.2-7.4-25.6-17.5c-0.6-1.9-1-3.9-1.2-5.9
		c0-0.1,0.1-0.3,0.1-0.4h53.4C338.7,42,326.9,52.5,312.5,52.5z M241.2,41.5l19.6-19.6l5.7-5.7l12.5-12.5c1.5,1.6,2.7,3.5,3.7,5.4
		c0.6,1.3,1.2,2.7,1.5,4.1c1.2,4.4,1.2,9.1,0,13.6l0,0.1c-0.2,0.7-0.4,1.3-0.6,2c-0.7,2-1.6,3.8-2.7,5.6c-1.1,1.8-2.5,3.5-4,5
		c-5.2,5.2-12.2,8.2-19.5,8.3C251.5,47.8,245.7,45.6,241.2,41.5L241.2,41.5z M293.1,26.7h-6.6c1.1-4.4,1.1-9.1,0-13.5H301V8H289
		v-24.3h-6.2V5c-0.9-1.3-1.8-2.5-2.9-3.6c-0.4-0.4-1.1-0.4-1.5,0l-13,13c-7.8-12.6-3.9-29.1,8.6-36.9c12.6-7.8,29.1-3.9,36.9,8.6
		s3.9,29.1-8.6,36.9C299.5,24.8,296.4,26.1,293.1,26.7z M366.1,27.1c-14.8,0-26.8-12-26.8-26.8c0-14.8,12-26.8,26.8-26.8
		c14.8,0,26.8,12,26.8,26.8c0,14.8-11.9,26.8-26.7,26.8C366.2,27.1,366.1,27.1,366.1,27.1L366.1,27.1z"/>
	<path id="Path_58" class="st0" d="M375.1-1c1-1.4,1.5-3,1.4-4.6c0-3-1-5.2-2.9-6.6c-1.9-1.5-4.9-2.2-8.9-2.2h-8.6v29.5h6.2V3.8h3.3
		l7,11.3h6.9c-1.3-1.9-4.2-6.2-8.7-12.8C372.7,1.6,374.1,0.5,375.1-1z M368.8-2.3c-1.3,0.8-2.9,1.1-4.4,1h-2v-8h1.9
		c1.5-0.1,3.1,0.2,4.5,0.9c1,0.7,1.5,1.8,1.4,3C370.3-4.2,369.8-3,368.8-2.3z"/>
	<path id="Path_59" class="st0" d="M303.4,35.1c0,2.2,1.8,4.1,4.1,4.1c0,0,0,0,0,0h22.3c2.2,0,4-1.9,4-4.1c0-2.2-1.8-4-4-4h-22.3
		C305.2,31,303.4,32.8,303.4,35.1z"/>
	<path id="Path_60" class="st0" d="M279.7,12c-1.6-1.6-4.2-1.6-5.7,0l-6,6l-5.7,5.7l-4.2,4.2c-1.6,1.6-1.6,4.2,0,5.7
		c1.6,1.6,4.2,1.6,5.7,0l4.5-4.5l5.8-5.8l5.5-5.5C281.3,16.1,281.3,13.6,279.7,12z"/>
</g>
</svg>
