<?xml version="1.0" encoding="utf-8"?>
<!-- Generator: Adobe Illustrator 24.2.1, SVG Export Plug-In . SVG Version: 6.00 Build 0)  -->
<svg version="1.1" id="Layer_1" xmlns="http://www.w3.org/2000/svg" xmlns:xlink="http://www.w3.org/1999/xlink" x="0px" y="0px"
	 viewBox="0 0 187.4 146.2" style="enable-background:new 0 0 187.4 146.2;" xml:space="preserve">
<style type="text/css">
	.st0{fill:#75777A;}
</style>
<g id="phone" transform="translate(-71.6)">
	<g id="Group_157" transform="translate(71.6)">
		<path id="Path_118" class="st0" d="M103.7,42.7L103.7,42.7c-0.5-0.5-1.2-0.8-1.9-0.8H89.2c-1.5,0-2.7,1.2-2.7,2.7v23.1
			c0,1.5,1.2,2.7,2.7,2.7h12.6c1.5,0,2.7-1.2,2.7-2.7V44.6C104.5,43.9,104.2,43.2,103.7,42.7z M95.5,68.6L95.5,68.6
			c-0.4,0-0.7-0.3-0.7-0.7c0-0.4,0.3-0.7,0.7-0.7c0.4,0,0.7,0.3,0.7,0.7C96.2,68.3,95.9,68.6,95.5,68.6L95.5,68.6z M102.3,64
			c0,1-0.8,1.8-1.8,1.8H90.4c-1,0-1.8-0.8-1.8-1.8V46.8c0-1,0.8-1.8,1.8-1.8h10.2c1,0,1.8,0.8,1.8,1.8c0,0,0,0,0,0L102.3,64z"/>
	</g>
</g>
</svg>
