<?xml version="1.0" encoding="utf-8"?>
<!-- Generator: Adobe Illustrator 24.2.1, SVG Export Plug-In . SVG Version: 6.00 Build 0)  -->
<svg version="1.1" id="Layer_1" xmlns="http://www.w3.org/2000/svg" xmlns:xlink="http://www.w3.org/1999/xlink" x="0px" y="0px"
	 viewBox="0 0 187.4 146.2" style="enable-background:new 0 0 187.4 146.2;" xml:space="preserve">
<style type="text/css">
	.st0{fill:#75777A;}
</style>
<path id="Path_105" class="st0" d="M99.2,42.6c0-0.5-0.4-0.8-0.8-0.8h-5.7c-0.5,0-0.8,0.4-0.8,0.8c0,0,0,0,0,0V44h7.3V42.6z"/>
<path id="Path_106" class="st0" d="M109.1,68.9h-0.3v-8.2c0-0.3-0.2-0.6-0.5-0.8l-2.1-1v10h-1.7V56.2c0-0.3-0.1-0.5-0.4-0.7
	l-5.1-3.4c-0.4-0.3-0.9-0.2-1.2,0.2c-0.1,0.1-0.1,0.3-0.1,0.5v16.1H96V52.8c0-1.4,1.1-2.5,2.5-2.5c0.5,0,1,0.1,1.4,0.4l0.8,0.6v-4.8
	c0-0.5-0.4-0.8-0.8-0.8h-9c-0.5,0-0.8,0.4-0.8,0.8v1h1.4c1.4,0,2.5,1.1,2.5,2.5v18.9h-1.7V50c0-0.5-0.4-0.8-0.8-0.8h-5.1
	c-0.5,0-0.8,0.4-0.8,0.8v11.3h2c1.4,0,2.5,1.1,2.5,2.5v5.1h-1.7v-5.1c0-0.5-0.4-0.8-0.8-0.8h-4.5c-0.5,0-0.8,0.4-0.8,0.8v5.1h-0.3
	c-0.5,0-0.8,0.4-0.8,0.8s0.4,0.8,0.8,0.8h27.2c0.5,0,0.8-0.4,0.8-0.8S109.6,68.9,109.1,68.9z M100.3,59c0-0.5,0.4-0.8,0.8-0.8
	c0.5,0,0.9,0.4,0.9,0.8v1.7c0,0.5-0.4,0.8-0.9,0.8c-0.5,0-0.8-0.4-0.8-0.8V59z M100.3,64.1c0-0.5,0.4-0.8,0.8-0.8
	c0.5,0,0.9,0.4,0.9,0.8l0,0v1.7c0,0.5-0.4,0.8-0.9,0.8c-0.5,0-0.8-0.4-0.8-0.8V64.1z M89.8,59c0,0.5-0.4,0.8-0.8,0.8
	s-0.8-0.4-0.8-0.8v-1.7c0-0.5,0.4-0.8,0.8-0.8s0.8,0.4,0.8,0.8V59z M89.8,54c0,0.5-0.4,0.8-0.8,0.8s-0.8-0.4-0.8-0.8l0,0v-1.7
	c0-0.5,0.4-0.8,0.8-0.8s0.8,0.4,0.8,0.8V54z M84.5,67c0-0.5,0.4-0.8,0.8-0.8s0.8,0.4,0.8,0.8v2h-1.7V67z"/>
</svg>
