<?xml version="1.0" encoding="utf-8"?>
<!-- Generator: Adobe Illustrator 24.2.1, SVG Export Plug-In . SVG Version: 6.00 Build 0)  -->
<svg version="1.1" id="Layer_1" xmlns="http://www.w3.org/2000/svg" xmlns:xlink="http://www.w3.org/1999/xlink" x="0px" y="0px"
	 viewBox="0 0 187.4 146.2" style="enable-background:new 0 0 187.4 146.2;" xml:space="preserve">
<style type="text/css">
	.st0{fill:#75777A;}
</style>
<g id="Group_148" transform="translate(313.516 -192.384)">
	<path id="Path_98" class="st0" d="M-229.9,244.6c3.3,2.2,6.5,4.3,9.8,6.5c1.3,1,3.1,1,4.4,0c3.1-2.1,6.3-4.2,9.4-6.3
		c0.1-0.1,0.3-0.2,0.4-0.3c0.1,0.1,0.1,0.3,0,0.4c0,3.4,0,6.7,0,10.1c0.1,1.2-0.8,2.3-2,2.4c-0.1,0-0.3,0-0.4,0
		c-6.4,0-12.7,0-19.1,0c-0.6,0-1.2-0.1-1.6-0.5c-0.5-0.4-0.8-1-0.8-1.7c0-3.6,0-7.1,0-10.7C-230,244.7-230,244.7-229.9,244.6z"/>
	<path id="Path_99" class="st0" d="M-218,239.6c3.2,0,6.5,0,9.7,0c1.2,0,2.2,0.9,2.3,2.1c0,0,0,0.1,0,0.1c0,0.7-0.3,1.3-0.9,1.7
		c-3.3,2.2-6.6,4.4-9.9,6.6c-0.8,0.5-1.7,0.5-2.5-0.1c-2.6-1.8-5.3-3.5-7.9-5.3c-0.6-0.4-1.2-0.8-1.7-1.2c-0.8-0.5-1.2-1.5-0.9-2.4
		c0.3-1,1.2-1.6,2.2-1.6C-224.5,239.6-221.2,239.6-218,239.6z"/>
</g>
</svg>
