<?xml version="1.0" encoding="utf-8"?>
<!-- Generator: Adobe Illustrator 24.2.1, SVG Export Plug-In . SVG Version: 6.00 Build 0)  -->
<svg version="1.1" id="Layer_1" xmlns="http://www.w3.org/2000/svg" xmlns:xlink="http://www.w3.org/1999/xlink" x="0px" y="0px"
	 viewBox="0 0 187.4 146.2" style="enable-background:new 0 0 187.4 146.2;" xml:space="preserve">
<style type="text/css">
	.st0{clip-path:url(#SVGID_2_);}
	.st1{fill:#75777A;}
	.st2{fill:none;stroke:#75777A;stroke-width:2;stroke-linecap:round;}
</style>
<g>
	<defs>
		<rect id="SVGID_1_" x="61" y="46.2" width="69" height="69"/>
	</defs>
	<clipPath id="SVGID_2_">
		<use xlink:href="#SVGID_1_"  style="overflow:visible;"/>
	</clipPath>
	<g id="Mask_Group_2" transform="translate(-588 -716)" class="st0">
		<g id="optometrist" transform="translate(588 716)">
			<g id="Group_50">
				<g id="Group_49">
					<path id="Path_24" class="st1" d="M125,87.8l-11-4.3v-2.3c1.8-1.4,3-3.4,3.3-5.7c2.2,0,4-1.8,3.9-4.1c0-1-0.4-2-1.2-2.8v-3.1
						c0-3-1.2-6-3.3-8.1c-0.4-0.4-1-0.4-1.4,0c-0.4,0.4-0.4,1,0,1.4c3.1,3.1,2.8,6.4,2.8,8.7c-0.2,0-0.4-0.1-0.6-0.1
						c0-0.9,0.3-0.3-3.3-4.3c-0.3-0.4-0.9-0.4-1.3-0.1l0,0c-3.5,2.4-7.6,3.5-11.8,3.1c-0.3,0-0.6,0.1-0.8,0.2
						c-0.3,0.3-0.4,0.7-0.3,1c-0.2,0-0.4,0-0.7,0.1v-2c0-5.2,4.3-9.5,9.5-9.5c1.4,0,2.7,0.3,3.9,0.9c0.5,0.2,1.1,0,1.3-0.5
						c0.2-0.5,0-1.1-0.5-1.3l0,0c-3.7-1.7-8.1-1.3-11.4,1v-7c0-1.6-1.3-2.9-2.9-2.9H73.3c-0.6,0-1,0.5-1,1c0,0.6,0.5,1,1,1h25.9
						c0.5,0,0.8,0.4,0.8,0.8v8.9c-1.8,2.1-2.9,4.8-2.9,7.6v3.1c-1.6,1.6-1.6,4.1,0,5.7c0.7,0.7,1.7,1.2,2.8,1.2
						c0.3,2.3,1.5,4.3,3.3,5.7v2.3l-11,4.3c-1.1,0.5-2,1.2-2.8,2.1H70.2c-0.6,0-1,0.5-1,1c0,0.6,0.5,1,1,1h17.9
						c-0.9,2-0.7,3.1-0.7,9.3H63.9c-0.5,0-0.8-0.4-0.8-0.8V49c0-0.5,0.4-0.8,0.8-0.8h5.8c0.6,0,1-0.5,1-1c0-0.6-0.5-1-1-1h-5.8
						c-1.6,0-2.9,1.3-2.9,2.9v51.3c0,1.6,1.3,2.9,2.9,2.9h23.5v10.9c0,0.6,0.5,1,1,1c0,0,0,0,0,0h40.5c0.6,0,1-0.5,1-1l0,0V95.4
						C129.9,92.1,128,89.1,125,87.8z M117.5,69.5c1.1,0.1,1.9,1,1.8,2.1c-0.1,1-0.8,1.8-1.8,1.8V69.5z M99.8,73.4
						c-1.1-0.1-1.9-1-1.8-2.1c0.1-1,0.8-1.8,1.8-1.8V73.4z M114.6,85.9l-2.6,4.5c0,0-1.7-1.1-1.7-1.2c3.7-3.3,3.6-3.1,3.7-3.5
						L114.6,85.9z M108.7,90.5l1,0.7l-0.3,1H108l-0.3-1L108.7,90.5z M105.3,85c0-0.2,0-1,0-2.7c2.2,0.8,4.6,0.8,6.7,0V85l-3.4,3
						L105.3,85z M108.2,94.2h0.9l1.3,13.7l-1.8,1.7l-1.8-1.7L108.2,94.2z M101.9,74.2v-5.9c4,0.1,8-0.9,11.4-3.1l2.2,2.4v6.7
						c0,3.8-3.1,6.8-6.9,6.7c-0.8,0-1.6-0.2-2.4-0.4C103.6,79.5,101.9,77,101.9,74.2L101.9,74.2z M103.3,85.7c0.1,0.4,0,0.3,3.7,3.5
						c0,0-1.7,1.1-1.7,1.2l-2.6-4.5L103.3,85.7z M96.7,113.2V98.6c0-0.6-0.5-1-1-1c-0.6,0-1,0.5-1,1v14.6h-5.3
						c0-19.6-0.5-19.8,1.7-22.1c0.5-0.6,1.2-1,1.9-1.4l7.3-2.9l2.8,26.3L96.7,113.2L96.7,113.2z M122.6,113.2V98.6c0-0.6-0.5-1-1-1
						c-0.6,0-1,0.5-1,1v14.6h-6.4l1.4-13.3c0.1-0.6-0.3-1.1-0.9-1.1c-0.6-0.1-1.1,0.3-1.1,0.9c0,0,0,0,0,0.1l-1.4,13.5h-7L102.7,90
						c0.7,1.2,1.4,3,3.2,2.3l0.3,1l-1.4,14.9c0,0.3,0.1,0.6,0.3,0.8c3,3,3,3.1,3.5,3.1s0.5-0.1,3.5-3.1c0.2-0.2,0.3-0.5,0.3-0.8
						l-1.4-14.9l0.3-1c0.9,0.4,1.9,0,2.3-0.8l0.9-1.5l-0.7,6.2c0,0.6,0.4,1,0.9,1.1c0.5,0,1-0.3,1.1-0.9l1-9.6c0,0,7.3,2.9,7.3,2.9
						c2.2,1,3.6,3.3,3.6,5.7v17.8L122.6,113.2L122.6,113.2z"/>
					<line id="Line_1" class="st2" x1="70.5" y1="57.7" x2="101.5" y2="57.7"/>
					<line id="Line_2" class="st2" x1="70.5" y1="73.7" x2="97.5" y2="73.7"/>
				</g>
			</g>
		</g>
	</g>
</g>
<g id="Group_52" transform="translate(-781.67 -538.568)">
	<path id="glasses" class="st1" d="M864.9,592.5c0,0.1,0,0.2,0,0.3l0.2,1.2c0.3,1.1,1.2,1.9,2.4,2h1.8c1.2,0,2.1-0.9,2.2-2.1l0-0.7
		l0.8-0.8c0.1-0.1,0.2-0.2,0.2-0.4v-0.9c0-0.3-0.2-0.5-0.5-0.5h-6.1c-0.5,0-0.9,0.2-1.2,0.6c-0.4-0.1-0.8-0.1-1.1,0
		c-0.3-0.4-0.7-0.6-1.2-0.6h-6.1c-0.3,0-0.5,0.2-0.5,0.5c0,0,0,0,0,0v0.9c0,0.1,0.1,0.3,0.2,0.4l0.8,0.8l0,0.7
		c0.1,1.2,1,2.1,2.2,2.1h1.8c1.2,0,2.1-0.8,2.4-2l0.2-1.2c0-0.1,0-0.2,0-0.3C864.1,592.2,864.6,592.2,864.9,592.5z M857.3,592
		c-0.2,0.2-0.4,0.2-0.6,0c-0.2-0.2-0.2-0.4,0-0.6c0.2-0.2,0.4-0.2,0.6,0c0.1,0.1,0.1,0.2,0.1,0.3C857.4,591.8,857.4,591.9,857.3,592
		z M862.6,592.6l-0.2,1.2c-0.2,0.6-0.7,1.1-1.4,1.1h-1.8c-0.6,0-1.1-0.5-1.1-1.1l-0.1-1.2c0-0.5,0.3-1,0.9-1c0,0,0.1,0,0.1,0h2.9
		c0.4,0,0.7,0.3,0.8,0.7C862.7,592.4,862.7,592.5,862.6,592.6L862.6,592.6z M870.6,592.7l-0.1,1.2c-0.1,0.6-0.5,1.1-1.1,1.1h-1.8
		c-0.7,0-1.2-0.5-1.4-1.1l-0.2-1.2c-0.1-0.4,0.1-0.8,0.5-0.9c0.1,0,0.2,0,0.3,0h2.9C870.2,591.6,870.6,592.1,870.6,592.7
		C870.6,592.6,870.6,592.6,870.6,592.7L870.6,592.7z M871.9,592c-0.2,0.2-0.4,0.2-0.6,0c-0.2-0.2-0.2-0.4,0-0.6s0.4-0.2,0.6,0
		c0.1,0.1,0.1,0.2,0.1,0.3C872,591.8,872,591.9,871.9,592L871.9,592z"/>
	<g id="glasses-of-cat-eyes-shape" transform="translate(795 576.57)">
		<g id="Group_51" transform="translate(0 0)">
			<path id="Path_25" class="st1" d="M77,46.3c-0.7-0.1-1.4-0.1-2.1-0.1c-2.7,0-3.5,0.8-4,1.2l-0.1,0.1c-0.4,0.2-0.8,0.4-1.2,0.3
				h-0.5c-0.4,0-0.9-0.1-1.2-0.3l-0.1-0.1c-0.5-0.4-1.3-1.2-4-1.2c-0.7,0-1.4,0-2.1,0.1c-0.4,0-0.6,0.4-0.6,0.7
				c0.1,0.9,0.4,3.2,2,4.3c0.7,0.5,1.5,0.8,2.4,0.8c1.6,0,3-1.2,3.2-2.8c0.1-0.3,0.3-0.6,0.7-0.6h0.1c0.3,0,0.6,0.2,0.7,0.6
				c0.2,1.6,1.6,2.8,3.2,2.8c0.9,0,1.7-0.3,2.4-0.8c1.7-1.1,2-3.4,2-4.3C77.7,46.7,77.4,46.4,77,46.3z M65.8,51.4
				c-0.1,0-0.2,0-0.3,0c-0.8,0.1-1.6-0.2-2.1-0.8c-0.6-0.7-0.9-1.7-0.8-2.6c0-0.1,0.1-0.2,0.2-0.2c0.7-0.3,1.4-0.4,2.2-0.5
				c0.4,0,0.7,0,1,0.1c1.3,0.4,1.9,1,1.9,1.9C67.7,50.5,66.9,51.3,65.8,51.4z M75.3,50.6c-0.6,0.6-1.4,0.8-2.1,0.8
				c-0.1,0-0.2,0-0.3,0c-1.1-0.1-1.9-0.9-2-2c0-1,0.6-1.5,1.9-1.9c0.3-0.1,0.7-0.1,1-0.1c0.8,0,1.5,0.2,2.2,0.5
				c0.1,0,0.2,0.1,0.2,0.2C76.2,48.9,75.9,49.9,75.3,50.6L75.3,50.6z"/>
		</g>
	</g>
	<g id="eyeglasses" transform="translate(795 558.562)">
		<path id="Path_26" class="st1" d="M77.2,47.1H76c-1.4-1.3-3.5-1.2-4.8,0.1c-0.1,0.1-0.1,0.1-0.2,0.2c-1-0.8-2.4-0.8-3.4,0
			c-1.2-1.5-3.3-1.7-4.8-0.5c-0.1,0.1-0.1,0.1-0.2,0.2h-1.1c-0.3,0-0.5,0.2-0.5,0.5c0,0.3,0.2,0.5,0.5,0.5h0.4
			c-0.8,1.7-0.1,3.7,1.6,4.6c1.7,0.8,3.7,0.1,4.6-1.6c0.4-0.9,0.5-1.9,0.1-2.8c0.7-0.6,1.7-0.6,2.4,0c-0.7,1.7,0.1,3.7,1.9,4.5
			c1.7,0.7,3.7-0.1,4.5-1.9c0.4-0.9,0.3-1.9-0.1-2.8h0.4c0.3,0,0.5-0.2,0.5-0.5C77.7,47.3,77.4,47.1,77.2,47.1z M65,52
			c-1.3,0-2.4-1.1-2.4-2.4s1.1-2.4,2.4-2.4c1.3,0,2.4,1.1,2.4,2.4l0,0C67.4,50.9,66.3,52,65,52z M73.7,52c-1.3,0-2.4-1.1-2.4-2.4
			s1.1-2.4,2.4-2.4s2.4,1.1,2.4,2.4l0,0C76.1,50.9,75,52,73.7,52z"/>
	</g>
</g>
</svg>
