<?xml version="1.0" encoding="utf-8"?>
<!-- Generator: Adobe Illustrator 24.2.1, SVG Export Plug-In . SVG Version: 6.00 Build 0)  -->
<svg version="1.1" id="Layer_1" xmlns="http://www.w3.org/2000/svg" xmlns:xlink="http://www.w3.org/1999/xlink" x="0px" y="0px"
	 viewBox="0 0 187.4 146.2" style="enable-background:new 0 0 187.4 146.2;" xml:space="preserve">
<style type="text/css">
	.st0{clip-path:url(#SVGID_2_);}
	.st1{fill:#688FCA;}
</style>
<g>
	<defs>
		<rect id="SVGID_1_" x="61.8" y="45.9" width="69" height="69"/>
	</defs>
	<clipPath id="SVGID_2_">
		<use xlink:href="#SVGID_1_"  style="overflow:visible;"/>
	</clipPath>
	<g id="Mask_Group_1_1_" transform="translate(-588 -716)" class="st0">
		<g id="optometrist_1_" transform="translate(588 716)">
			<g id="Group_20_1_">
				<g id="Group_19_1_">
					<path id="Path_9_1_" class="st1" d="M81.4,64.8v-2.3h3.8v-1.4h-3.8v-2.1h4.3v-1.5h-6.1v8.9h6.2v-1.5H81.4z"/>
				</g>
			</g>
			<g id="Group_22_1_">
				<g id="Group_21_1_">
					<path id="Path_10_1_" class="st1" d="M78.7,71.7v-1.3h-4.4v6.5h1.5v-2.6h2.4v-1.2h-2.4v-1.4H78.7z"/>
				</g>
			</g>
			<g id="Group_24_1_">
				<g id="Group_23_1_">
					<path id="Path_11_1_" class="st1" d="M90.5,70.4h-2.8v6.5h1.5v-2.1c1.2,0,2.1,0.2,2.8-0.7c0.8-0.9,0.8-2.3-0.2-3.2
						C91.5,70.6,91,70.4,90.5,70.4z M90.4,73.5h-1.2v-1.8c1.1,0,1.6-0.1,1.8,0.5C91.2,72.7,91,73.5,90.4,73.5z"/>
				</g>
			</g>
			<g id="Group_26_1_">
				<g id="Group_25_1_">
					<path id="Path_12_1_" class="st1" d="M71.7,83v1h1.2v3.2h1.1V84h1.2v-1L71.7,83z"/>
				</g>
			</g>
			<g id="Group_28_1_">
				<g id="Group_27_1_">
					<path id="Path_13_1_" class="st1" d="M91.7,86.2l1.8-2.3V83h-3.2v1h1.9l-1.9,2.3v0.8h3.3v-1H91.7z"/>
				</g>
			</g>
			<g id="Group_30_1_">
				<g id="Group_29_1_">
					<path id="Path_14_1_" class="st1" d="M81.8,83.2c-1.1,0.5-1.6,1.7-1.1,2.8c0.5,1.1,1.7,1.6,2.8,1.1c0.3-0.1,0.5-0.3,0.7-0.5
						c0.8-0.8,0.8-2.1,0-3C83.5,83,82.6,82.8,81.8,83.2z M83,86.1c-0.5,0.2-1.1,0-1.3-0.4c-0.1-0.2-0.1-0.4-0.1-0.6
						c-0.1-0.5,0.3-1,0.8-1.1c0.3,0,0.7,0.1,0.9,0.3C83.7,84.9,83.6,85.7,83,86.1C83,86.1,83,86.1,83,86.1z"/>
				</g>
			</g>
			<g id="Group_32_1_">
				<g id="Group_31_1_">
					<path id="Path_15_1_" class="st1" d="M94.3,78.8H71c-0.6,0-1,0.5-1,1c0,0.6,0.5,1,1,1h23.3c0.6,0,1-0.5,1-1
						C95.3,79.2,94.9,78.8,94.3,78.8z"/>
				</g>
			</g>
			<g id="Group_34_1_">
				<g id="Group_33_1_">
					<path id="Path_16_1_" class="st1" d="M125.8,87.5l-11-4.3v-2.3c1.8-1.4,3-3.4,3.3-5.7c2.2,0,4-1.8,3.9-4.1c0-1-0.4-2-1.2-2.8
						v-3.1c0-3-1.2-6-3.3-8.1c-0.4-0.4-1-0.4-1.4,0c-0.4,0.4-0.4,1,0,1.4c3.1,3.1,2.8,6.4,2.8,8.7c-0.2,0-0.4-0.1-0.6-0.1
						c0-0.8,0.3-0.3-3.3-4.3c-0.3-0.4-0.9-0.4-1.3-0.1l0,0c-3.5,2.4-7.6,3.5-11.8,3.1c-0.3,0-0.6,0.1-0.8,0.2
						c-0.3,0.3-0.4,0.7-0.3,1c-0.2,0-0.4,0-0.7,0.1v-2c0-5.2,4.3-9.5,9.5-9.5c1.4,0,2.7,0.3,3.9,0.9c0.5,0.2,1.1,0,1.3-0.5
						c0.2-0.5,0-1.1-0.5-1.3l0,0c-3.7-1.7-8.1-1.3-11.4,1v-7c0-1.6-1.3-2.9-2.9-2.9H74.1c-0.6,0-1,0.5-1,1s0.5,1,1,1H100
						c0.5,0,0.8,0.4,0.8,0.8v8.9c-1.8,2.1-2.9,4.8-2.9,7.6v3.1c-1.6,1.6-1.6,4.1,0,5.7c0.7,0.7,1.7,1.2,2.8,1.2
						c0.3,2.3,1.5,4.3,3.3,5.7v2.3l-11,4.3c-1.1,0.5-2,1.2-2.8,2.1H71c-0.6,0-1,0.5-1,1c0,0.6,0.5,1,1,1h17.9
						c-0.9,2-0.7,3.1-0.7,9.3H64.7c-0.5,0-0.8-0.4-0.8-0.8V48.7c0-0.5,0.4-0.8,0.8-0.8h5.8c0.6,0,1-0.5,1-1s-0.5-1-1-1h-5.8
						c-1.6,0-2.9,1.3-2.9,2.9v51.3c0,1.6,1.3,2.9,2.9,2.9h23.5v10.9c0,0.6,0.5,1,1,1c0,0,0,0,0,0h40.5c0.6,0,1-0.5,1-1l0,0V95.1
						C130.7,91.8,128.8,88.8,125.8,87.5z M118.3,69.2c1.1,0.1,1.9,1,1.8,2.1c-0.1,1-0.8,1.8-1.8,1.8V69.2z M100.6,73.1
						c-1.1-0.1-1.9-1-1.8-2.1c0.1-1,0.8-1.8,1.8-1.8V73.1z M115.4,85.6l-2.6,4.5c0,0-1.7-1.1-1.7-1.2c3.7-3.3,3.6-3.1,3.7-3.5
						L115.4,85.6z M109.5,90.2l1,0.7l-0.3,1h-1.3l-0.3-1L109.5,90.2z M106.1,84.7c0-0.2,0-1,0-2.7c2.2,0.8,4.6,0.8,6.7,0v2.7l-3.4,3
						L106.1,84.7z M109,93.9h0.9l1.3,13.7l-1.8,1.7l-1.8-1.7L109,93.9z M102.6,73.9V68c4,0.1,8-0.9,11.4-3.1l2.2,2.4v6.7
						c0,3.8-3.1,6.8-6.9,6.7c-0.8,0-1.6-0.2-2.4-0.4C104.4,79.2,102.6,76.7,102.6,73.9L102.6,73.9z M104.1,85.4
						c0.1,0.4,0,0.3,3.7,3.5c0,0-1.7,1.1-1.7,1.2l-2.6-4.5L104.1,85.4z M97.5,112.9V98.3c0-0.6-0.5-1-1-1c-0.6,0-1,0.5-1,1v14.6
						h-5.3c0-19.6-0.5-19.8,1.7-22.1c0.5-0.6,1.2-1,1.9-1.4l7.3-2.9l2.8,26.3L97.5,112.9L97.5,112.9z M123.4,112.9V98.3
						c0-0.6-0.5-1-1-1c-0.6,0-1,0.5-1,1v14.6H115l1.4-13.3c0.1-0.6-0.3-1.1-0.9-1.1c-0.6-0.1-1.1,0.3-1.1,0.9c0,0,0,0,0,0.1
						l-1.4,13.5h-7l-2.5-23.2c0.7,1.2,1.4,3,3.2,2.3l0.3,1l-1.4,14.9c0,0.3,0.1,0.6,0.3,0.8c3,3,3,3.1,3.5,3.1s0.5-0.1,3.5-3.1
						c0.2-0.2,0.3-0.5,0.3-0.8L111.9,93l0.3-1c0.9,0.4,1.9,0,2.3-0.8l0.9-1.5l-0.7,6.2c0,0.6,0.4,1,0.9,1.1c0.5,0,1-0.3,1.1-0.9
						l1-9.6c0,0,7.3,2.9,7.3,2.9c2.2,1,3.6,3.3,3.6,5.7v17.8L123.4,112.9L123.4,112.9z"/>
				</g>
			</g>
		</g>
	</g>
</g>
</svg>
