<?xml version="1.0" encoding="utf-8"?>
<!-- Generator: Adobe Illustrator 24.2.1, SVG Export Plug-In . SVG Version: 6.00 Build 0)  -->
<svg version="1.1" id="Layer_1" xmlns="http://www.w3.org/2000/svg" xmlns:xlink="http://www.w3.org/1999/xlink" x="0px" y="0px"
	 viewBox="0 0 187.4 146.2" style="enable-background:new 0 0 187.4 146.2;" xml:space="preserve">
<style type="text/css">
	.st0{fill:#75777A;}
	.st1{clip-path:url(#SVGID_2_);}
	.st2{fill:none;stroke:#75777A;stroke-width:2;stroke-linecap:round;}
	.st3{fill:#FFFFFF;}
</style>
<g id="Group_59" transform="translate(-1147.365 -715.681)">
	<g id="Group_55" transform="translate(1171.053 720.875)">
		<path id="glasses" class="st0" d="M67.8,28.9c0,0.1,0,0.2,0,0.3l0.2,1c0.2,0.9,1,1.6,2,1.6h1.5c0.9,0,1.7-0.7,1.8-1.7l0-0.6
			l0.7-0.7c0.1-0.1,0.1-0.2,0.1-0.3v-0.7c0-0.2-0.2-0.4-0.4-0.4c0,0,0,0,0,0h-5c-0.4,0-0.7,0.2-0.9,0.5c-0.3-0.1-0.6-0.1-0.9,0
			c-0.2-0.3-0.6-0.5-1-0.5h-5c-0.2,0-0.4,0.2-0.4,0.4c0,0,0,0,0,0v0.7c0,0.1,0,0.2,0.1,0.3l0.7,0.7l0,0.6c0.1,0.9,0.9,1.7,1.8,1.7
			h1.5c0.9,0,1.8-0.7,2-1.6l0.2-1c0-0.1,0-0.2,0-0.3C67.1,28.7,67.5,28.7,67.8,28.9z M61.6,28.5c-0.1,0.1-0.3,0.1-0.5,0
			c-0.1-0.1-0.1-0.3,0-0.5s0.3-0.1,0.5,0c0.1,0.1,0.1,0.1,0.1,0.2C61.7,28.4,61.6,28.5,61.6,28.5z M65.9,29l-0.2,1
			c-0.1,0.5-0.6,0.9-1.1,0.9h-1.5c-0.5,0-0.9-0.4-0.9-0.9l-0.1-1c0-0.4,0.3-0.8,0.7-0.8c0,0,0,0,0.1,0h2.4c0.3,0,0.6,0.2,0.6,0.5
			C66,28.9,65.9,28.9,65.9,29z M72.5,29.1l-0.1,1c0,0.5-0.4,0.9-0.9,0.9H70c-0.5,0-1-0.4-1.1-0.9l-0.2-1c-0.1-0.3,0.1-0.6,0.4-0.7
			c0.1,0,0.1,0,0.2,0h2.4C72.1,28.3,72.5,28.6,72.5,29.1C72.5,29,72.5,29.1,72.5,29.1L72.5,29.1z M73.5,28.5c-0.1,0.1-0.3,0.1-0.5,0
			c-0.1-0.1-0.1-0.3,0-0.5c0.1-0.1,0.3-0.1,0.5,0c0.1,0.1,0.1,0.1,0.1,0.2C73.6,28.4,73.6,28.5,73.5,28.5L73.5,28.5z"/>
		<g id="glasses-of-cat-eyes-shape" transform="translate(0 26.295)">
			<g id="Group_51" transform="translate(0 0)">
				<path id="Path_25" class="st0" d="M73.6,27.5c-0.6-0.1-1.2-0.1-1.8-0.1c-2.2,0-2.9,0.6-3.3,1l-0.1,0.1c-0.3,0.2-0.6,0.3-1,0.3
					h-0.4c-0.4,0-0.7-0.1-1-0.3L66,28.4c-0.4-0.3-1.1-1-3.3-1c-0.6,0-1.2,0-1.8,0.1c-0.3,0-0.5,0.3-0.5,0.6c0,1.4,0.6,2.6,1.7,3.5
					c0.6,0.4,1.2,0.6,1.9,0.6c1.3,0,2.5-1,2.6-2.3c0-0.3,0.3-0.5,0.5-0.5h0.1c0.3,0,0.5,0.2,0.5,0.5c0.1,1.3,1.3,2.3,2.6,2.3
					c0.7,0,1.4-0.2,1.9-0.6c1-0.9,1.6-2.2,1.7-3.5C74.1,27.8,73.9,27.5,73.6,27.5z M64.4,31.7c-0.1,0-0.2,0-0.3,0
					c-0.7,0-1.3-0.2-1.8-0.6c-0.5-0.6-0.7-1.4-0.7-2.2c0-0.1,0.1-0.2,0.1-0.2c0.6-0.2,1.2-0.4,1.8-0.4c0.3,0,0.6,0,0.9,0.1
					c1.1,0.3,1.5,0.8,1.5,1.6C66,30.9,65.3,31.6,64.4,31.7z M72.2,31c-0.5,0.5-1.1,0.7-1.8,0.6c-0.1,0-0.2,0-0.3,0
					c-0.9-0.1-1.6-0.8-1.6-1.7c0-0.8,0.5-1.3,1.5-1.6c0.3-0.1,0.6-0.1,0.9-0.1c0.6,0,1.2,0.1,1.8,0.4c0.1,0,0.1,0.1,0.1,0.2
					C73,29.7,72.7,30.4,72.2,31L72.2,31z"/>
			</g>
		</g>
		<g id="eyeglasses" transform="translate(0 11.568)">
			<path id="Path_26" class="st0" d="M73.7,28.2h-0.9c-1.1-1.1-2.9-1-3.9,0.1c-0.1,0.1-0.1,0.1-0.1,0.2c-0.8-0.6-2-0.6-2.8,0
				C65,27.2,63.2,27,62,28c-0.1,0-0.1,0.1-0.2,0.1h-0.9c-0.2,0-0.4,0.2-0.4,0.4c0,0.2,0.2,0.4,0.4,0.4h0.4c-0.7,1.4-0.1,3.1,1.3,3.7
				c1.4,0.7,3.1,0.1,3.7-1.3c0.4-0.7,0.4-1.6,0.1-2.3c0.6-0.5,1.4-0.5,1.9,0c-0.6,1.4,0.1,3.1,1.5,3.6c1.4,0.6,3.1-0.1,3.6-1.5
				c0.3-0.7,0.3-1.6-0.1-2.3h0.4c0.2,0,0.4-0.2,0.4-0.4C74.1,28.3,73.9,28.2,73.7,28.2L73.7,28.2z M63.8,32.2c-1.1,0-2-0.9-2-2
				c0-1.1,0.9-2,2-2s2,0.9,2,2l0,0C65.7,31.3,64.9,32.2,63.8,32.2L63.8,32.2z M70.9,32.2c-1.1,0-2-0.9-2-2c0-1.1,0.9-2,2-2
				c1.1,0,2,0.9,2,2l0,0C72.9,31.3,72,32.2,70.9,32.2L70.9,32.2z"/>
		</g>
	</g>
	<g id="Group_58" transform="translate(1147.365 715.577)">
		<g>
			<defs>
				<rect id="SVGID_1_" x="74.3" y="27.5" width="56" height="57"/>
			</defs>
			<clipPath id="SVGID_2_">
				<use xlink:href="#SVGID_1_"  style="overflow:visible;"/>
			</clipPath>
			<g id="Mask_Group_3" transform="translate(14.138 0)" class="st1">
				<g id="optometrist" transform="translate(-0.493 0.514)">
					<g id="Group_54" transform="translate(0)">
						<g id="Group_53">
							<path id="Path_27" class="st0" d="M112.8,61.4l-9-3.5V56c1.5-1.1,2.5-2.8,2.7-4.7c1.8,0,3.3-1.5,3.2-3.3c0-0.9-0.4-1.7-1-2.3
								v-2.5c0-2.5-1-4.9-2.7-6.6c-0.3-0.3-0.8-0.3-1.2,0c-0.3,0.3-0.3,0.8,0,1.2l0,0c2.5,2.5,2.2,5.3,2.2,7.1
								c-0.2,0-0.4-0.1-0.5-0.1c0-0.7,0.3-0.3-2.7-3.5c-0.3-0.3-0.7-0.3-1.1-0.1l0,0c-2.8,1.9-6.3,2.8-9.7,2.5c-0.2,0-0.5,0-0.6,0.2
								c-0.2,0.2-0.3,0.5-0.3,0.8c-0.2,0-0.4,0-0.5,0.1v-1.7c0-4.3,3.5-7.8,7.8-7.7c1.1,0,2.2,0.2,3.2,0.7c0.4,0.2,0.9,0,1.1-0.5
								c0.2-0.4,0-0.9-0.4-1c-3-1.4-6.6-1.1-9.3,0.9v-5.8c0-1.3-1.1-2.3-2.3-2.3H70.5c-0.5,0-0.8,0.4-0.8,0.9c0,0.4,0.4,0.8,0.8,0.8
								h21.2c0.4,0,0.7,0.3,0.7,0.7V37c-1.5,1.7-2.3,3.9-2.3,6.2v2.6c-1.3,1.3-1.3,3.3,0,4.6c0.6,0.6,1.4,1,2.3,1
								c0.3,1.9,1.2,3.5,2.7,4.7v1.9l-9,3.5c-0.9,0.4-1.7,1-2.3,1.7H68c-0.5,0-0.8,0.3-0.9,0.8c0,0.5,0.3,0.8,0.8,0.9c0,0,0,0,0.1,0
								h14.7c-0.7,1.6-0.6,2.5-0.6,7.6H62.8c-0.4,0-0.7-0.3-0.7-0.7v-42c0-0.4,0.3-0.7,0.7-0.7h4.7c0.5,0,0.8-0.4,0.8-0.8
								c0-0.5-0.4-0.8-0.8-0.8h-4.7c-1.3,0-2.3,1-2.3,2.3v42c0,1.3,1,2.3,2.3,2.3h19.2V83c0,0.5,0.4,0.8,0.8,0.8H116
								c0.5,0,0.8-0.4,0.8-0.8c0,0,0,0,0,0V67.6C116.8,65,115.3,62.5,112.8,61.4z M106.7,46.4c0.9,0.1,1.6,0.8,1.5,1.7
								c-0.1,0.8-0.7,1.4-1.5,1.5V46.4z M92.2,49.7c-0.9-0.1-1.6-0.8-1.5-1.7c0.1-0.8,0.7-1.4,1.5-1.5V49.7z M104.3,59.9l-2.1,3.6
								c0,0-1.4-0.9-1.4-1c3-2.7,3-2.5,3-2.9L104.3,59.9z M99.4,63.7l0.8,0.5L100,65h-1.1l-0.3-0.8L99.4,63.7z M96.7,59.1
								c0-0.1,0-0.8,0-2.2c1.8,0.7,3.7,0.7,5.5,0v2.2l-2.8,2.4L96.7,59.1z M99.1,66.7h0.8l1.1,11.2l-1.4,1.4L98,77.9L99.1,66.7z
								 M93.9,50.3v-4.9c3.3,0.1,6.5-0.8,9.3-2.5l1.8,1.9v5.4c0,3.1-2.6,5.5-5.6,5.5c-0.7,0-1.3-0.1-1.9-0.4
								C95.3,54.7,93.9,52.6,93.9,50.3z M95.1,59.7c0.1,0.3,0,0.2,3,2.9c0,0-1.4,0.9-1.4,0.9l-2.1-3.6L95.1,59.7z M89.7,82.2V70.2
								c0-0.5-0.4-0.8-0.9-0.8c-0.4,0-0.8,0.4-0.8,0.8v11.9h-4.3c0-16.1-0.4-16.2,1.4-18.1c0.4-0.5,1-0.8,1.6-1.1l6-2.3l2.3,21.5
								H89.7z M110.9,82.2V70.2c0-0.5-0.4-0.8-0.9-0.8c-0.4,0-0.8,0.4-0.8,0.8v11.9H104l1.2-10.9c0.1-0.5-0.3-0.9-0.7-0.9
								c-0.5-0.1-0.9,0.3-0.9,0.7c0,0,0,0,0,0.1l-1.2,11h-5.7l-2-19c0.6,1,1.1,2.5,2.6,1.9l0.3,0.8l-1.2,12.2c0,0.2,0.1,0.5,0.2,0.7
								c2.5,2.4,2.4,2.5,2.9,2.5c0.5,0,0.4-0.1,2.9-2.5c0.2-0.2,0.3-0.4,0.2-0.7L101.4,66l0.3-0.8c0.7,0.3,1.5,0,1.9-0.7l0.7-1.2
								l-0.5,5.1c0,0.5,0.3,0.9,0.8,0.9c0.4,0,0.8-0.3,0.9-0.7l0.8-7.9c0,0,5.9,2.3,6,2.3c1.8,0.9,3,2.7,3,4.7v14.5H110.9
								L110.9,82.2z"/>
							<line id="Line_3" class="st2" x1="68.2" y1="36.8" x2="93.6" y2="36.8"/>
							<line id="Line_4" class="st2" x1="68.2" y1="49.9" x2="90.3" y2="49.9"/>
						</g>
					</g>
				</g>
			</g>
		</g>
		<g id="eye-test" transform="translate(0 17.012)">
			<g id="Group_56" transform="translate(0 0)">
				<rect id="Rectangle_15" x="62.3" y="27.5" class="st3" width="29" height="36"/>
				<path id="Path_28" class="st0" d="M90.2,28.4H61.6c-0.6,0-1.1,0.5-1.1,1.1v2.1c0,0.6,0.5,1.1,1.1,1.1h0.3v2.8
					c0,0.3,0.3,0.6,0.6,0.6c0.3,0,0.6-0.3,0.6-0.6v-2.8h25.6v31.1c0,0,0,0,0,0l0,0h-5.1c-0.3,0-0.6,0.3-0.6,0.6
					c0,0.3,0.3,0.6,0.6,0.6h5.1c0.7,0,1.2-0.5,1.2-1.2V32.7h0.3c0.6,0,1.1-0.5,1.1-1.1v-2.1C91.3,28.9,90.8,28.4,90.2,28.4z
					 M90.1,31.5H61.7v-2h28.5L90.1,31.5z"/>
				<path id="Path_29" class="st0" d="M80.8,63.8H63.1c0,0,0,0,0,0l0,0V38.2c0-0.3-0.3-0.6-0.6-0.6c-0.3,0-0.6,0.3-0.6,0.6v25.6
					c0,0.7,0.5,1.2,1.2,1.2h10.6v1c0,1.2,1,2.1,2.1,2.1c1.2,0,2.1-1,2.1-2.1v-1h2.8c0.3,0,0.6-0.3,0.6-0.6
					C81.4,64,81.1,63.8,80.8,63.8L80.8,63.8z M76.8,65.9c0,0.5-0.4,1-1,1c-0.5,0-1-0.4-1-1v-1h1.9V65.9z"/>
				<g id="Group_57" transform="translate(6.018 7.956)">
					<path id="Path_30" class="st0" d="M68.8,33.3H71c0.2,0,0.4-0.2,0.4-0.4c0-0.2-0.2-0.4-0.4-0.4h-1.8v-1.8h1.6
						c0.2,0,0.4-0.2,0.4-0.4c0-0.2-0.2-0.4-0.4-0.4h-1.6v-1.8H71c0.2,0,0.4-0.2,0.4-0.4c0-0.2-0.2-0.4-0.4-0.4h-2.2
						c-0.2,0-0.4,0.2-0.4,0.4l0,0v5.2C68.4,33.2,68.6,33.3,68.8,33.3z"/>
					<path id="Path_31" class="st0" d="M64.6,39c0.2,0,0.4-0.2,0.4-0.4l0,0v-1.4h0.9c0.2,0,0.4-0.2,0.4-0.4c0-0.2-0.2-0.4-0.4-0.4
						c0,0,0,0,0,0H65v-1h1c0.2,0,0.4-0.2,0.4-0.4c0-0.2-0.2-0.4-0.4-0.4c0,0,0,0,0,0h-1.4c-0.2,0-0.4,0.2-0.4,0.4l0,0v3.5
						C64.2,38.8,64.4,39,64.6,39z"/>
					<path id="Path_32" class="st0" d="M73.1,39c0.2,0,0.4-0.2,0.4-0.4l0,0v-1.2h0.6c0.8,0,1.4-0.6,1.4-1.4c0-0.8-0.6-1.4-1.4-1.4
						c0,0,0,0-0.1,0h-1c0,0-0.1,0-0.1,0c-0.2,0-0.3,0.2-0.3,0.4c0,0,0,3.6,0,3.6C72.7,38.8,72.9,39,73.1,39z M74.1,35.4
						c0.3,0,0.6,0.3,0.6,0.6s-0.3,0.6-0.6,0.6h-0.6c0-0.2,0-0.5,0-0.6c0-0.1,0-0.4,0-0.6L74.1,35.4z"/>
					<path id="Path_33" class="st0" d="M75.3,45.5c0.1,0.1,0.2,0.2,0.3,0.2h1.6c0.2,0,0.4-0.2,0.4-0.4c0-0.2-0.2-0.4-0.4-0.4
						c0,0,0,0,0,0h-0.9l1.2-1.8c0.1-0.2,0.1-0.4-0.1-0.5c-0.1,0-0.1-0.1-0.2-0.1h-1.5c-0.2,0-0.4,0.2-0.4,0.4c0,0.2,0.2,0.4,0.4,0.4
						c0,0,0,0,0,0h0.8l-1.2,1.8C75.3,45.2,75.3,45.3,75.3,45.5z"/>
					<path id="Path_34" class="st0" d="M63.1,45.7c0.2,0,0.4-0.2,0.4-0.4l0,0v-2h0.3c0.2,0,0.4-0.2,0.4-0.4c0-0.2-0.2-0.4-0.4-0.4
						c0,0,0,0,0,0h-1.3c-0.2,0-0.4,0.2-0.4,0.4c0,0.2,0.2,0.4,0.4,0.4h0.3v2C62.7,45.5,62.9,45.7,63.1,45.7z"/>
					<path id="Path_35" class="st0" d="M68.3,44.1c0,0.9,0.7,1.6,1.6,1.6s1.6-0.7,1.6-1.6c0-0.9-0.7-1.6-1.6-1.6
						C69,42.5,68.3,43.2,68.3,44.1z M70.7,44.1c0,0.4-0.4,0.8-0.8,0.8c-0.4,0-0.8-0.4-0.8-0.8c0-0.4,0.4-0.8,0.8-0.8l0,0
						C70.3,43.3,70.7,43.6,70.7,44.1z"/>
					<path id="Path_36" class="st0" d="M62.2,52.4h-0.6v-2.5c0-0.2-0.2-0.4-0.4-0.4c-0.2,0-0.4,0.2-0.4,0.4c0,0,0,0,0,0v2.9
						c0,0.2,0.1,0.3,0.3,0.4c0,0,0.7,0,1.1,0c0.2,0,0.4-0.2,0.4-0.4C62.6,52.5,62.4,52.4,62.2,52.4L62.2,52.4z"/>
					<path id="Path_37" class="st0" d="M72.7,50.3c0.2,0,0.4-0.2,0.4-0.4c0-0.2-0.2-0.4-0.4-0.4c0,0,0,0,0,0h-1.2
						c-0.2,0-0.4,0.2-0.4,0.4l0,0v2.8c0,0.2,0.2,0.4,0.4,0.4l0,0h1.2c0.2,0,0.4-0.2,0.4-0.4c0-0.2-0.2-0.4-0.4-0.4c0,0,0,0,0,0h-0.8
						v-0.6h0.7c0.2,0,0.4-0.2,0.4-0.4c0-0.2-0.2-0.4-0.4-0.4h-0.7v-0.6L72.7,50.3z"/>
					<path id="Path_38" class="st0" d="M77.4,49.6h-0.8c-0.2,0-0.4,0.2-0.4,0.4c0,0,0,0,0,0l0,0c0,0,0,2.8,0,2.8
						c0,0.2,0.2,0.4,0.4,0.4l0,0c0,0,0.6,0,0.8,0c0.9-0.1,1.6-0.8,1.5-1.7c0,0,0,0,0,0c0.1-0.9-0.5-1.7-1.4-1.8
						C77.5,49.6,77.4,49.6,77.4,49.6z M77.4,52.4H77c0-0.3,0-0.8,0-1c0-0.2,0-0.7,0-1h0.4c0.7,0,0.7,0.8,0.7,1
						C78.1,51.9,77.9,52.4,77.4,52.4z"/>
					<path id="Path_39" class="st0" d="M66.9,49.5h-0.8c-0.4,0-0.4,0.5-0.4,0.7v2.5c0,0.2,0.2,0.4,0.4,0.4c0.2,0,0.4-0.2,0.4-0.4
						v-0.9h0.4c0.7,0,1.2-0.5,1.2-1.2C68.1,50,67.5,49.5,66.9,49.5C66.9,49.5,66.9,49.5,66.9,49.5L66.9,49.5z M66.9,51.1h-0.4
						c0-0.2,0-0.3,0-0.4s0-0.3,0-0.4h0.4c0.2,0,0.4,0.2,0.4,0.4C67.3,50.9,67.2,51.1,66.9,51.1C66.9,51.1,66.9,51.1,66.9,51.1
						L66.9,51.1z"/>
					<path id="Path_40" class="st0" d="M60.9,41h18c0.2,0,0.4-0.2,0.4-0.4c0-0.2-0.2-0.4-0.4-0.4h-18c-0.2,0-0.4,0.2-0.4,0.4
						C60.5,40.8,60.6,41,60.9,41C60.9,41,60.9,41,60.9,41z"/>
					<path id="Path_41" class="st0" d="M78.8,47.1h-18c-0.2,0-0.4,0.2-0.4,0.4c0,0.2,0.2,0.4,0.4,0.4c0,0,0,0,0,0h18
						c0.2,0,0.4-0.2,0.4-0.4C79.2,47.3,79,47.1,78.8,47.1z"/>
				</g>
			</g>
		</g>
	</g>
</g>
</svg>
