<?xml version="1.0" encoding="utf-8"?>
<!-- Generator: Adobe Illustrator 24.2.1, SVG Export Plug-In . SVG Version: 6.00 Build 0)  -->
<svg version="1.1" id="Layer_1" xmlns="http://www.w3.org/2000/svg" xmlns:xlink="http://www.w3.org/1999/xlink" x="0px" y="0px"
	 viewBox="0 0 187.4 146.2" style="enable-background:new 0 0 187.4 146.2;" xml:space="preserve">
<style type="text/css">
	.st0{fill:#75777A;}
</style>
<g id="postcard" transform="translate(0 -71)">
	<g id="Group_156" transform="translate(0 71)">
		<path id="Path_117" class="st0" d="M107.9,45.3H83.1c-1.5,0-2.6,1.2-2.6,2.6c0,0,0,0,0,0v16.4c0,1.5,1.2,2.6,2.6,2.6c0,0,0,0,0,0
			h24.7c1.5,0,2.6-1.2,2.6-2.6l0,0V48C110.5,46.5,109.3,45.3,107.9,45.3L107.9,45.3z M90.7,62.9h-5.3c-0.5,0-0.9-0.4-0.9-0.9
			c0-0.5,0.4-0.9,0.9-0.9h5.3c0.5,0,0.9,0.4,0.9,0.9C91.6,62.5,91.2,62.9,90.7,62.9L90.7,62.9z M90.7,60h-5.3
			c-0.5,0-0.9-0.4-0.9-0.9c0-0.5,0.4-0.9,0.9-0.9h5.3c0.5,0,0.9,0.4,0.9,0.9C91.6,59.6,91.2,60,90.7,60L90.7,60z M96.4,62
			c0,0.5-0.4,0.9-0.9,0.9s-0.9-0.4-0.9-0.9V50.3c0-0.5,0.4-0.9,0.9-0.9s0.9,0.4,0.9,0.9l0,0V62z M106.4,55c0,0.5-0.4,0.9-0.9,0.9
			h-4.7c-0.5,0-0.9-0.4-0.9-0.9v-4.7c0-0.5,0.4-0.9,0.9-0.9h4.7c0.5,0,0.9,0.4,0.9,0.9L106.4,55z"/>
	</g>
</g>
</svg>
