<?xml version="1.0" encoding="utf-8"?>
<!-- Generator: Adobe Illustrator 24.2.1, SVG Export Plug-In . SVG Version: 6.00 Build 0)  -->
<svg version="1.1" id="Layer_1" xmlns="http://www.w3.org/2000/svg" xmlns:xlink="http://www.w3.org/1999/xlink" x="0px" y="0px"
	 viewBox="0 0 187.4 146.2" style="enable-background:new 0 0 187.4 146.2;" xml:space="preserve">
<style type="text/css">
	.st0{fill:#75777A;}
</style>
<g id="town" transform="translate(-1 -3)">
	<path id="Path_107" class="st0" d="M93.7,46h1.1v2.2h1.1V46H97v2.2h1.1V46h1.1v2.2h1.1V46h1.1v2.2h1.1v-3.3h-9.9v3.3h1.1V46z"/>
	<path id="Path_108" class="st0" d="M83.3,71.3c0.1-0.8,0.5-1.6,1.1-2.2h-0.6V68h1.1v0.7c0.3-0.2,0.7-0.4,1.1-0.5v-5.7h-3.3v8.8
		C82.9,71.3,83.1,71.3,83.3,71.3L83.3,71.3z M83.8,63.6h1.1v1.1h-1.1V63.6z M83.8,65.8h1.1v1.1h-1.1V65.8z"/>
	<path id="Path_109" class="st0" d="M90.7,70.3c0.5-0.1,1-0.1,1.6,0c0.4-1.3,1.3-2.3,2.6-2.6v-7.3h-7.7V68
		C88.7,68,90,68.9,90.7,70.3z M92.6,61.4h1.1v1.1h-1.1V61.4z M92.6,63.6h1.1v1.1h-1.1V63.6z M92.6,65.8h1.1v1.1h-1.1V65.8z
		 M90.4,61.4h1.1v1.1h-1.1V61.4z M90.4,63.6h1.1v1.1h-1.1V63.6z M90.4,65.8h1.1v1.1h-1.1V65.8z M89.3,66.9h-1.1v-1.1h1.1V66.9z
		 M89.3,64.7h-1.1v-1.1h1.1V64.7z M89.3,62.5h-1.1v-1.1h1.1V62.5z"/>
	<path id="Path_110" class="st0" d="M110.2,48.2h1.1v2.2h-1.1V48.2z"/>
	<path id="Path_111" class="st0" d="M108,48.2h1.1v2.2H108V48.2z"/>
	<path id="Path_112" class="st0" d="M112.4,46.5c0-1.5-1.2-2.8-2.8-2.8s-2.8,1.2-2.8,2.8v0.6h5.5V46.5z"/>
	<path id="Path_113" class="st0" d="M94.3,42.7h6.6v1.1h-6.6V42.7z"/>
	<path id="Path_114" class="st0" d="M109.7,61.4c1.1,0,2.1,0.6,2.8,1.5V51.5h-5.5v11.4C107.6,62,108.6,61.4,109.7,61.4z M110.2,52.6
		h1.1v1.1h-1.1V52.6z M110.2,54.8h1.1v1.1h-1.1V54.8z M110.2,57h1.1v1.1h-1.1V57z M110.2,59.2h1.1v1.1h-1.1V59.2z M108,52.6h1.1v1.1
		H108V52.6z M108,54.8h1.1v1.1H108V54.8z M108,57h1.1v1.1H108V57z M108,59.2h1.1v1.1H108V59.2z"/>
	<path id="Path_115" class="st0" d="M95.9,66.3h1.9l0.1-0.2c1.6-2.6,3-5.4,4.1-8.3l0.1-0.4h1.5v-8.3H91.5v9.9h4.4V66.3z M93.2,50.9
		h8.8v2.2h-8.8V50.9z M93.2,57.5v-2.2h8.8v2.2H93.2z"/>
	<path id="Path_116" class="st0" d="M110.2,74.6v-4.5c1.3-0.4,2.2-1.9,2.2-3.8c0-2.1-1.2-3.8-2.8-3.8c-1.5,0-2.7,1.6-2.7,3.7
		c-1.4-2.4-2.7-4.9-3.7-7.5h-0.3c-1,2.7-2.3,5.3-3.8,7.7h3.4V66l-1.5-1.5l0.8-0.8l0.7,0.7v-2.5h1.1v1.2l0.8-0.5l0.6,0.9l-1.4,0.9
		v1.9h3.3c0,1.9,0.9,3.4,2.2,3.8v4.5h-5.5v-8.3h-1.1V74c0-1.5-1.2-2.7-2.7-2.7c-0.2,0-0.3,0-0.5,0l-0.6,0.1l-0.1-0.6
		c-0.2-1.5-1.6-2.5-3.1-2.3c-1.2,0.2-2.2,1.2-2.3,2.4l-0.1,0.7l-0.7-0.2c-0.6-0.2-1.3-0.2-1.9,0L90,71.7l-0.2-0.6
		c-0.4-1.5-1.9-2.3-3.4-1.9c-1.2,0.3-2,1.4-2,2.7v0.7l-0.6-0.1c-0.2,0-0.3,0-0.5,0c-1.3,0-2.4,0.9-2.7,2.2h-1.2v1.1h34.1v-1.1H110.2
		z"/>
</g>
</svg>
