<?xml version="1.0" encoding="utf-8"?>
<!-- Generator: Adobe Illustrator 24.2.1, SVG Export Plug-In . SVG Version: 6.00 Build 0)  -->
<svg version="1.1" id="Layer_1" xmlns="http://www.w3.org/2000/svg" xmlns:xlink="http://www.w3.org/1999/xlink" x="0px" y="0px"
	 viewBox="0 0 187.4 146.2" style="enable-background:new 0 0 187.4 146.2;" xml:space="preserve">
<style type="text/css">
	.st0{fill:#75777A;}
</style>
<g id="Group_151" transform="translate(2.549 16.921)">
	<g id="Group_150">
		<path id="Path_102" class="st0" d="M81.8,41.7c-0.3,0-0.6,0-0.8-0.1v12.1h1.7v-12H81.8z"/>
	</g>
</g>
<g id="Group_153" transform="translate(24.752 16.921)">
	<g id="Group_152">
		<path id="Path_103" class="st0" d="M81.8,41.7H81v12h1.7V41.7C82.4,41.7,82.1,41.7,81.8,41.7z"/>
	</g>
</g>
<g id="Group_155">
	<g id="Group_154">
		<path id="Path_104" class="st0" d="M106.6,41.7H84.4c-1.9,0-3.4,1.5-3.4,3.4c0,0,0,0,0,0v8.5c0,1.9,1.5,3.4,3.4,3.4h22.2
			c1.9,0,3.4-1.5,3.4-3.4v-8.5C110,43.2,108.5,41.7,106.6,41.7z M100.6,51.9H90.3v-1.7h10.3V51.9z M104.9,48.5H86.1v-1.7h18.8V48.5z
			"/>
	</g>
</g>
</svg>
