<?xml version="1.0" encoding="utf-8"?>
<!-- Generator: Adobe Illustrator 24.2.1, SVG Export Plug-In . SVG Version: 6.00 Build 0)  -->
<svg version="1.1" id="Layer_1" xmlns="http://www.w3.org/2000/svg" xmlns:xlink="http://www.w3.org/1999/xlink" x="0px" y="0px"
	 viewBox="0 0 187.4 146.2" style="enable-background:new 0 0 187.4 146.2;" xml:space="preserve">
<style type="text/css">
	.st0{fill:#75777A;}
	.st1{fill:#FFFFFF;}
	.st2{font-family:'Roboto-Light';}
	.st3{font-size:8px;}
</style>
<g id="Group_149" transform="translate(-209.146 -1129)">
	<g id="Group_147" transform="translate(209.152 1060.734)">
		<path id="Shape" class="st0" d="M90,114.2h-1.4c-0.4,0-0.7,0.3-0.8,0.7l-6.2,18.8c-0.1,0.2,0,0.4,0.1,0.6c0.2,0.2,0.4,0.3,0.7,0.3
			l0,0h2.8c0.5,0,0.9-0.3,1-0.7l4.4-18.8c0.1-0.2,0-0.5-0.1-0.7C90.4,114.3,90.2,114.2,90,114.2z M82.4,133.7
			C82.4,133.7,82.4,133.7,82.4,133.7l0,0.5L82.4,133.7z M85.3,133.7c0,0-0.1,0-0.1,0l-2.6,0l6.1-18.6c0,0,0,0,0,0h1L85.3,133.7z"/>
		<path id="Shape-2" class="st0" d="M105.8,134.6h2.8l0,0c0.3,0,0.5-0.1,0.7-0.3c0.1-0.2,0.2-0.4,0.1-0.6l-6.2-18.8
			c-0.1-0.4-0.4-0.6-0.8-0.7H101c-0.2,0-0.4,0.1-0.5,0.2c-0.1,0.2-0.2,0.4-0.1,0.7l4.4,18.8C104.9,134.4,105.3,134.7,105.8,134.6
			L105.8,134.6z M102.3,115.1C102.3,115.2,102.3,115.2,102.3,115.1l6.1,18.6h-2.6c0,0-0.1,0-0.1,0l-4.3-18.5H102.3z"/>
		<path id="Path_97" class="st0" d="M102.7,134.3c-0.2,0.2-0.4,0.3-0.7,0.3l-6.6,0l-6.6,0c-0.3,0-0.5-0.1-0.7-0.3
			c-0.1-0.2-0.2-0.4-0.2-0.6l3.1-18.8c0-0.4,0.3-0.7,0.7-0.7h7.2c0.4,0,0.7,0.3,0.7,0.7l3.1,18.8C102.9,134,102.9,134.2,102.7,134.3
			z"/>
	</g>
	<text transform="matrix(1 0 0 1 299.5654 1188.9496)" class="st1 st2 st3">06</text>
</g>
</svg>
