<?xml version="1.0" encoding="utf-8"?>
<!-- Generator: Adobe Illustrator 24.2.1, SVG Export Plug-In . SVG Version: 6.00 Build 0)  -->
<svg version="1.1" id="Layer_1" xmlns="http://www.w3.org/2000/svg" xmlns:xlink="http://www.w3.org/1999/xlink" x="0px" y="0px"
	 viewBox="0 0 187.4 146.2" style="enable-background:new 0 0 187.4 146.2;" xml:space="preserve">
<style type="text/css">
	.st0{fill:#75777A;}
</style>
<path id="man" class="st0" d="M107.2,71.3c-1.7,0-3.3-0.9-4.2-2.4c-0.3-0.6-1.1-0.7-1.6-0.4c-0.6,0.3-0.7,1.1-0.4,1.6l0,0
	c0.6,1,1.5,1.9,2.5,2.5l-1.2,5.6l-3-3.4c0.5-0.5,0.5-1.2,0-1.7s-1.2-0.5-1.7,0c0,0,0,0,0,0l-2.1,2.4l-5.2-5.8
	c0.4-0.9,0.7-1.8,0.8-2.8c8.4,2.5,17.2-2.4,19.7-10.8c0.4-1.4,0.6-2.9,0.6-4.4v-9.8c0-0.7-0.5-1.2-1.2-1.2c-0.7,0-1.2,0.5-1.2,1.2
	v9.8c0,7.4-6,13.5-13.5,13.5c-7.4,0-13.5-6-13.5-13.5v-10c3-0.1,5.6-2.3,6.2-5.3c4.9,3.2,10.5,5.2,16.2,6c0.6,0.1,1.2-0.4,1.3-1
	c0.1-0.6-0.4-1.2-1-1.3C98.8,39.2,93,37,88,33.4c-0.5-0.4-1.3-0.2-1.7,0.3c-0.1,0.2-0.2,0.4-0.2,0.7c0,0,0,3-2.2,4.3
	c-0.9,0.5-2,0.7-3.1,0.6c-0.6,0-1.1,0.4-1.2,1c0,0.1,0-0.3,0,9.5c-0.8-0.4-1.3-1.2-1.3-2.2V33.2c0-1.6,1.3-2.8,2.8-2.8
	c0.5,0,0.9-0.3,1.1-0.7c1.6-4,5.5-6.7,9.8-6.7h10.1c5.8,0,10.6,4.7,10.6,10.6v14c0,0.7,0.5,1.2,1.2,1.2c0.7,0,1.2-0.5,1.2-1.2v-14
	c0-7.1-5.8-12.9-12.9-12.9H92.1c-5,0-9.6,2.9-11.7,7.5c-2.5,0.4-4.4,2.6-4.4,5.1v14.4c0,2.2,1.5,4.2,3.7,4.7
	c0.2,5.9,3.7,11.2,9,13.7v0.3c0,2.7-2.2,4.9-4.9,4.9c0,0,0,0,0,0c-6.7,0-12.2,5.5-12.2,12.2c0,0,0,0,0,0v7c0,0.7,0.5,1.2,1.2,1.2
	c0.7,0,1.2-0.5,1.2-1.2v-7c0-5.4,4.4-9.8,9.8-9.8c0,0,0,0,0,0c0.5,0,1-0.1,1.5-0.2l1.7,7.5c0.1,0.6,0.8,1,1.4,0.9
	c0.2-0.1,0.5-0.2,0.6-0.4l2.3-2.7l-1.4,11.5c-0.1,0.6,0.4,1.2,1,1.3c0.6,0.1,1.2-0.4,1.3-1l1.7-13.3c0.1,0.1,0.7,0.8,0.8,0.9
	c0.5,0.4,1.2,0.4,1.7-0.1c0.2-0.3-0.4,0.4,0.7-0.8l1.7,13.3c0.1,0.6,0.7,1.1,1.3,1c0.6-0.1,1.1-0.7,1-1.3l-1.4-11.5l2.3,2.7
	c0.4,0.5,1.2,0.5,1.7,0.1c0.2-0.2,0.3-0.4,0.4-0.6l1.7-7.5c0.5,0.1,1,0.2,1.5,0.2c5.4,0,9.8,4.4,9.8,9.8c0,0,0,0,0,0v7
	c0,0.7,0.5,1.2,1.2,1.2c0.7,0,1.2-0.5,1.2-1.2l0,0v-7C119.5,76.7,114,71.3,107.2,71.3C107.2,71.3,107.2,71.3,107.2,71.3L107.2,71.3z
	 M88.7,78.1l-1.2-5.6c0.5-0.3,0.9-0.6,1.3-1l2.9,3.2L88.7,78.1z"/>
</svg>
